<svg width="219" height="219" viewBox="0 0 219 219" fill="none" xmlns="http://www.w3.org/2000/svg">
<g clip-path="url(#clip0_750_1167)">
<path fill-rule="evenodd" clip-rule="evenodd" d="M20.1269 171.199L22.0033 164.787L21.1049 164.459C18.5366 168.283 16.048 169.022 11.2723 169.022H8.62688V158.869L16.9812 159.699L17.2301 159.616L18.0887 156.574L17.8846 156.41L8.62688 156.985V147.49H11.4366C17.3197 147.49 18.4943 147.982 19.3106 151.559H20.209L21.4757 145.758L21.0253 145.306H0.912109V146.209L3.40075 147.937V168.568L0.912109 170.295V171.199H20.1269ZM217.423 147.937L219.912 146.209V145.306H211.846V146.209L214.786 147.937V164.953L200.75 145.306H193.035V146.209L195.882 147.854V168.57L193.393 170.298V171.201H201.474V170.298L198.535 168.57V150.855L213.141 171.201H217.097L217.423 170.871V147.937ZM180.828 170.295L177.891 168.568L177.889 162.37C178.187 162.408 178.487 162.422 178.787 162.41C186.898 162.41 192.373 158.549 192.373 152.873C192.373 147.894 188.498 145.306 180.992 145.306H170.222V146.209L172.71 147.937V168.568L170.222 170.295V171.199H180.828V170.295ZM165.655 147.894L168.186 146.209L168.181 145.301H159.856V146.204L162.469 147.932L156.35 166.754H156.064L148.802 147.972L151.373 146.207V145.304H140.848V146.207L143.459 148.015L152.393 171.199H157.251L165.655 147.894ZM187.07 152.992C187.07 157.636 183.615 160.39 177.891 160.226V147.977C178.93 147.5 180.056 147.249 181.196 147.238C181.979 147.113 182.779 147.173 183.535 147.414C184.29 147.656 184.98 148.072 185.549 148.63C186.119 149.188 186.552 149.872 186.816 150.629C187.08 151.386 187.167 152.195 187.07 152.992ZM68.9626 164.674C69.4366 163.33 69.631 161.902 69.5338 160.478V160.493C69.5338 154.821 66.189 150.548 61.3337 150.548C60.0374 150.557 58.7597 150.861 57.5947 151.437C56.4296 152.014 55.407 152.847 54.602 153.877V151.002L53.8554 150.497L47.136 151.854V152.757L49.6645 154.271V176.796L47.136 178.521V179.424H57.5385V178.521L54.602 176.796V170.465C56.0616 171.146 57.6461 171.511 59.2532 171.534C60.661 171.548 62.0565 171.267 63.3518 170.708C64.6471 170.149 65.8143 169.324 66.7799 168.286C67.7455 167.247 68.4887 166.018 68.9626 164.674ZM85.0778 155.053H85.9737L87.4121 151.403C86.6241 150.845 85.6806 150.556 84.7194 150.58C83.5187 150.651 82.354 151.023 81.3292 151.661C80.3044 152.299 79.4514 153.184 78.8463 154.238V150.992L78.0997 150.487L71.3281 151.844V152.747L73.859 154.261V168.563L71.3281 170.29V171.193H81.855V170.29L78.8363 168.563V156.11C79.9849 155.044 81.4802 154.444 83.0371 154.425C83.7621 154.435 84.4695 154.653 85.0778 155.053ZM92.1754 160.524C95.5201 160.647 98.5762 160.731 101.314 160.731C103.108 160.731 104.414 160.731 105.231 160.685L105.843 160.07C105.994 157.568 105.207 155.102 103.641 153.163C102.832 152.257 101.832 151.547 100.716 151.086C99.6 150.624 98.3957 150.423 97.1925 150.497C95.8203 150.477 94.4589 150.745 93.1937 151.284C91.9286 151.823 90.7871 152.621 89.8408 153.629C88.8946 154.636 88.1641 155.831 87.6951 157.138C87.2262 158.445 87.0291 159.837 87.116 161.225C87.0127 162.602 87.199 163.985 87.6626 165.283C88.1261 166.581 88.8563 167.764 89.8048 168.755C90.7534 169.746 91.8986 170.521 93.1649 171.03C94.4312 171.538 95.7896 171.769 97.1502 171.706C98.8723 171.837 100.592 171.426 102.075 170.528C103.558 169.63 104.73 168.29 105.432 166.691L104.576 166.033C103.066 167.29 101.142 167.921 99.1909 167.798C95.112 167.798 92.6258 165.127 92.1754 160.524ZM110.25 165.374H109.392L107.635 169.392C110.09 170.824 112.88 171.562 115.713 171.529C120.486 171.529 123.627 169.062 123.627 165.117C123.594 163.792 123.127 162.516 122.301 161.489C121.474 160.462 120.334 159.743 119.06 159.444L116.977 158.622C113.836 157.388 112.776 156.485 112.776 155.005C112.776 153.65 113.931 152.664 115.673 152.664C116.703 152.705 117.705 153.019 118.578 153.574C119.451 154.13 120.166 154.907 120.65 155.83H121.467L123.425 152.46C121.201 151.227 118.698 150.603 116.163 150.651C111.43 150.651 108.247 153.295 108.247 156.705C108.247 159.459 110.33 161.555 113.797 162.87L115.633 163.568C118.082 164.512 119.063 165.415 119.063 167.1C119.063 168.58 117.96 169.526 116.166 169.526C114.919 169.379 113.728 168.924 112.696 168.2C111.664 167.476 110.824 166.505 110.25 165.374ZM128.169 165.374H127.31L125.555 169.392C128.011 170.824 130.801 171.562 133.634 171.529C138.407 171.529 141.55 169.062 141.55 165.117C141.517 163.792 141.05 162.515 140.223 161.488C139.396 160.462 138.255 159.742 136.981 159.444L134.9 158.622C131.76 157.388 130.697 156.485 130.697 155.005C130.697 153.65 131.839 152.664 133.594 152.664C134.624 152.705 135.626 153.019 136.499 153.574C137.372 154.129 138.087 154.907 138.571 155.83H139.387L141.346 152.46C139.122 151.227 136.619 150.603 134.084 150.651C129.351 150.651 126.17 153.295 126.17 156.705C126.17 159.459 128.248 161.555 131.717 162.87L133.554 163.568C136.003 164.512 136.981 165.415 136.981 167.1C136.981 168.58 135.881 169.526 134.084 169.526C132.838 169.379 131.646 168.923 130.615 168.199C129.583 167.475 128.743 166.505 128.169 165.374ZM42.8929 168.568L36.8953 160.801L42.6864 153.607L45.175 151.922V151.019H37.0969V151.922L39.4636 153.524L35.5465 159.073L31.5074 153.524L33.5879 151.922V151.019H23.4716V151.922L25.7562 153.731L31.7115 161.376L25.8781 168.611L23.3895 170.295V171.199H31.4651V170.295L29.0984 168.691L33.0155 163.104L37.0994 168.691L34.9766 170.295V171.199H45.1327V170.295L42.8929 168.568ZM96.2966 152.704C98.5413 152.704 100.214 154.432 100.662 158.047L92.0933 158.581C92.2152 155.128 93.8477 152.704 96.2966 152.704ZM58.8874 154.225C62.4362 154.225 64.6386 158.006 64.6386 162.569V162.559C64.6386 166.711 62.6826 169.178 59.5792 169.178C58.5958 169.214 57.6199 168.991 56.7473 168.53C55.8747 168.069 55.1354 167.385 54.602 166.547V155.739C55.8307 154.777 57.3348 154.245 58.8874 154.225Z" fill="#DA3940"/>
<path fill-rule="evenodd" clip-rule="evenodd" d="M85.2826 124.996C73.4893 124.996 65.9619 118.309 65.9619 109.056C66.3724 104.005 67.8675 99.1069 70.3427 94.7025H58L69.3449 70.2866H148.297C148.686 70.3003 149.074 70.2344 149.438 70.093C149.802 69.9515 150.134 69.7373 150.414 69.4632C150.694 69.1892 150.917 68.8608 151.069 68.4976C151.222 68.1344 151.3 67.744 151.3 67.3495C151.3 66.955 151.222 66.5645 151.069 66.2014C150.917 65.8382 150.694 65.5098 150.414 65.2357C150.134 64.9616 149.802 64.7475 149.438 64.606C149.074 64.4645 148.686 64.3987 148.297 64.4123H84.3856L89.9868 52.3188C91.7164 48.6393 94.4388 45.5301 97.8398 43.3503C101.241 41.1705 105.181 40.009 109.207 40H136.055C151.558 40 163 50.7385 163 64.7537C163 81.37 147.834 94.706 130.318 94.706H78.4298C76.8548 97.9863 78.6558 100.584 82.4733 100.584H123.813C125.332 100.487 126.854 100.699 128.291 101.206C129.728 101.714 131.05 102.507 132.18 103.539C133.31 104.57 134.225 105.82 134.871 107.215C135.517 108.61 135.882 110.121 135.943 111.66C135.652 115.35 133.977 118.788 131.262 121.268C128.546 123.748 124.997 125.082 121.341 124.996H85.2826Z" fill="#DA3940"/>
</g>
<defs>
<clipPath id="clip0_750_1167">
<rect width="219" height="219" fill="white"/>
</clipPath>
</defs>
</svg>
