<svg width="150" height="150" viewBox="0 0 150 150" fill="none" xmlns="http://www.w3.org/2000/svg">
<g clip-path="url(#clip0_757_914)">
<path fill-rule="evenodd" clip-rule="evenodd" d="M45.1589 88.2213C40.5869 81.9315 38.1289 74.315 38.1289 66.5511C38.1289 46.1584 54.6469 29.6477 74.9995 29.6477C95.3521 29.6477 111.87 46.1584 111.87 66.5511C111.87 74.315 109.412 81.9315 104.84 88.2213L87.1422 59.4259L85.4216 62.3251L87.1422 70.3839L74.9995 49.549L67.4779 62.276L69.2477 70.3839L62.8568 59.475L45.1589 88.2213Z" fill="#3E5FFF"/>
<path d="M131.566 102.481C131.566 101.899 131.806 101.317 132.217 100.906C132.628 100.495 133.21 100.255 133.793 100.255C134.375 100.255 134.957 100.495 135.368 100.906C135.779 101.317 136.019 101.899 136.019 102.481C136.019 102.789 135.951 103.063 135.848 103.337C135.745 103.611 135.574 103.85 135.368 104.056C135.163 104.261 134.923 104.432 134.649 104.535C134.375 104.638 134.101 104.706 133.793 104.706C133.484 104.706 133.21 104.638 132.936 104.535C132.662 104.432 132.423 104.261 132.217 104.056C132.012 103.85 131.84 103.611 131.738 103.337C131.601 103.063 131.566 102.755 131.566 102.481ZM131.977 102.481C131.977 102.721 132.012 102.96 132.114 103.166C132.217 103.371 132.32 103.576 132.491 103.748C132.662 103.919 132.868 104.056 133.073 104.158C133.279 104.261 133.519 104.295 133.758 104.295C134.238 104.295 134.718 104.09 135.026 103.748C135.368 103.405 135.54 102.96 135.54 102.447C135.54 101.967 135.334 101.488 135.026 101.146C134.683 100.803 134.238 100.598 133.758 100.598C133.519 100.598 133.279 100.632 133.073 100.735C132.868 100.838 132.662 100.974 132.491 101.146C132.32 101.317 132.183 101.522 132.114 101.728C132.012 102.002 131.977 102.241 131.977 102.481ZM133.45 103.748H132.936V101.214H133.93C134.444 101.214 134.855 101.488 134.855 102.002C134.855 102.173 134.82 102.31 134.718 102.447C134.615 102.584 134.512 102.686 134.341 102.72L134.855 103.748H134.272L133.793 102.823H133.416V103.748H133.45ZM133.896 101.693H133.45V102.31H133.896C134.101 102.31 134.307 102.241 134.307 102.002C134.307 101.762 134.101 101.693 133.896 101.693Z" fill="black"/>
<path fill-rule="evenodd" clip-rule="evenodd" d="M27.135 120.044L18.0241 106.384V120.044H13.9824V100.255H18.6749L27.272 113.197V100.255H31.3137V120.044H27.135Z" fill="black"/>
<path fill-rule="evenodd" clip-rule="evenodd" d="M40.5917 106.247C36.4815 106.247 33.1934 109.294 33.1934 113.334C33.1934 117.374 36.4473 120.352 40.5574 120.352C44.6676 120.352 47.9557 117.305 47.9557 113.231C47.9215 109.225 44.6333 106.247 40.5917 106.247ZM40.5574 116.723C38.7078 116.723 37.2008 115.32 37.2008 113.265C37.2008 111.211 38.6736 109.842 40.5232 109.842C42.3728 109.842 43.8798 111.245 43.8798 113.265C43.8798 115.285 42.407 116.723 40.5574 116.723Z" fill="black"/>
<path fill-rule="evenodd" clip-rule="evenodd" d="M58.1347 106.521V110.39C57.7237 110.321 57.2784 110.287 56.8674 110.287C54.9836 110.287 53.6478 111.588 53.6478 114.121V120.044H49.7773V106.555H53.5107V108.541H53.545C54.2643 107 55.6343 106.418 57.0386 106.418C57.4497 106.384 57.7922 106.452 58.1347 106.521Z" fill="black"/>
<path fill-rule="evenodd" clip-rule="evenodd" d="M69.4342 100.221V108.061H69.4C67.9956 106.418 66.1461 106.281 65.3583 106.281C61.4879 106.281 58.8848 109.842 58.8848 113.265C58.8848 116.894 61.3851 120.284 65.324 120.284C66.2488 120.284 68.2697 120.147 69.537 118.298H69.5712V120.01H73.4074V100.221H69.4342ZM66.2146 116.723C64.365 116.723 62.8579 115.319 62.8579 113.265C62.8579 111.211 64.365 109.842 66.2146 109.842C68.0642 109.842 69.5712 111.245 69.5712 113.265C69.537 115.285 68.0299 116.723 66.2146 116.723Z" fill="black"/>
<path fill-rule="evenodd" clip-rule="evenodd" d="M81.7621 120.044L74.6035 100.255H79.022L84.1597 115.319L89.3316 100.255H93.6816L86.4888 120.044H81.7621Z" fill="black"/>
<path fill-rule="evenodd" clip-rule="evenodd" d="M102.723 100.221H95.3594V120.044H99.4695V113.06H102.586C106.731 113.06 109.813 110.971 109.813 106.589C109.779 102.378 106.697 100.221 102.723 100.221ZM102.381 109.225H99.4353V104.09H102.347C104.059 104.09 105.669 104.74 105.669 106.658C105.669 108.541 103.991 109.225 102.381 109.225Z" fill="black"/>
<path fill-rule="evenodd" clip-rule="evenodd" d="M125.024 120.044L115.913 106.384V120.044H111.871V100.255H116.564L125.161 113.197V100.255H129.202V120.044H125.024Z" fill="black"/>
</g>
<defs>
<clipPath id="clip0_757_914">
<rect width="122.036" height="90.7045" fill="white" transform="translate(13.9824 29.6477)"/>
</clipPath>
</defs>
</svg>
