<svg width="219" height="219" viewBox="0 0 219 219" fill="none" xmlns="http://www.w3.org/2000/svg">
<path d="M86.8388 57.8001V51.6697C86.8488 48.6868 87.4437 45.735 88.5896 42.983C89.7354 40.2309 91.4097 37.7325 93.5169 35.6303C95.6241 33.5282 98.123 31.8635 100.871 30.7312C103.619 29.599 106.561 29.0214 109.531 29.0314C112.501 29.0415 115.441 29.6389 118.181 30.7897C120.921 31.9405 123.408 33.6221 125.501 35.7385C127.595 37.8549 129.252 40.3646 130.379 43.1243C131.507 45.884 132.082 48.8397 132.072 51.8226V57.8001H143.975V51.6697C143.975 42.4747 140.338 33.6563 133.865 27.1545C127.391 20.6527 118.611 17 109.455 17C100.3 17 91.5199 20.6527 85.0462 27.1545C78.5724 33.6563 74.9355 42.4747 74.9355 51.6697V57.8001H86.8388Z" fill="url(#paint0_linear_742_1057)"/>
<path d="M149.93 64.8238C149.928 62.9215 149.175 61.0976 147.836 59.7525C146.497 58.4074 144.681 57.6511 142.787 57.6497H127.312C126.307 57.6474 125.313 57.8594 124.396 58.2714C123.479 58.6835 122.659 59.2863 121.991 60.0402H96.9125C96.2461 59.2878 95.4285 58.6857 94.5137 58.2737C93.5988 57.8617 92.6073 57.649 91.6046 57.6497H76.1298C75.1919 57.6497 74.2632 57.8353 73.3967 58.1958C72.5302 58.5564 71.7429 59.0849 71.0798 59.7511C70.4168 60.4173 69.8909 61.2082 69.5322 62.0786C69.1736 62.9489 68.9891 63.8818 68.9895 64.8238C67.4434 66.8931 66.6082 69.4107 66.6094 71.9978V115.034C66.6086 117.623 67.4455 120.142 68.994 122.212C70.5426 124.281 72.7188 125.789 75.1949 126.509C75.6102 128.021 76.5083 129.355 77.7514 130.306C78.9945 131.256 80.5138 131.771 82.0761 131.77H92.7906C94.2657 131.768 95.704 131.307 96.9079 130.451C98.1118 129.595 99.0223 128.386 99.5143 126.989H119.394C119.885 128.387 120.795 129.598 122 130.454C123.205 131.311 124.644 131.77 126.12 131.77H136.832C138.393 131.77 139.911 131.256 141.152 130.305C142.392 129.354 143.288 128.021 143.7 126.509C146.18 125.792 148.36 124.284 149.912 122.214C151.465 120.144 152.305 117.623 152.307 115.031V71.9951C152.308 69.4092 151.474 66.8927 149.93 64.8238ZM114.34 93.6944C114.138 93.8162 113.979 93.9973 113.883 94.2133C113.788 94.4294 113.761 94.6697 113.806 94.9017L116.461 110.049C116.492 110.221 116.484 110.397 116.44 110.565C116.395 110.733 116.314 110.889 116.203 111.022C116.091 111.156 115.952 111.263 115.795 111.336C115.638 111.41 115.467 111.447 115.294 111.447H103.593C103.42 111.447 103.249 111.41 103.092 111.336C102.935 111.263 102.796 111.156 102.684 111.022C102.573 110.889 102.492 110.733 102.447 110.565C102.403 110.397 102.395 110.221 102.426 110.049L105.097 94.9017C105.135 94.6553 105.097 94.4035 104.988 94.1793C104.88 93.9551 104.707 93.7692 104.491 93.6461C102.669 92.5531 101.255 90.889 100.467 88.9099C99.6792 86.9307 99.5609 84.7464 100.13 82.693C100.7 80.6397 101.925 78.8313 103.619 77.5462C105.312 76.2611 107.378 75.5706 109.501 75.581C111.623 75.5915 113.683 76.3022 115.364 77.6038C117.044 78.9054 118.252 80.7258 118.802 82.7846C119.351 84.8434 119.211 87.0265 118.404 88.9978C117.597 90.9692 116.167 92.6194 114.335 93.6944H114.34Z" fill="url(#paint1_linear_742_1057)"/>
<path d="M104.099 44.4043C104.101 43.635 103.876 42.8824 103.452 42.2419C103.028 41.6014 102.424 41.1018 101.716 40.8065C101.009 40.5111 100.231 40.4333 99.4793 40.5828C98.728 40.7324 98.0378 41.1026 97.4962 41.6465C96.9546 42.1905 96.586 42.8837 96.4371 43.6383C96.2882 44.3929 96.3657 45.1749 96.6598 45.8852C96.9539 46.5954 97.4513 47.2021 98.089 47.6281C98.7268 48.0542 99.4761 48.2805 100.242 48.2784C101.264 48.2748 102.243 47.8655 102.966 47.1397C103.688 46.414 104.096 45.4307 104.099 44.4043ZM118.69 40.5087C117.925 40.5066 117.176 40.7324 116.539 41.1575C115.902 41.5826 115.404 42.1879 115.11 42.8969C114.815 43.606 114.736 44.3869 114.883 45.1409C115.031 45.8949 115.397 46.5881 115.937 47.1329C116.476 47.6777 117.164 48.0496 117.914 48.2016C118.664 48.3536 119.442 48.2788 120.15 47.9867C120.857 47.6947 121.463 47.1984 121.89 46.5607C122.316 45.923 122.545 45.1726 122.547 44.4043C122.549 43.3748 122.144 42.3868 121.421 41.6566C120.699 40.9264 119.718 40.5137 118.693 40.5087H118.69ZM114.568 50.8244C113.186 52.1365 111.357 52.8676 109.455 52.8676C107.554 52.8676 105.724 52.1365 104.342 50.8244C104.115 50.6182 103.818 50.5077 103.512 50.5156C103.206 50.5235 102.915 50.6493 102.699 50.867C102.483 51.0846 102.359 51.3774 102.352 51.6847C102.345 51.9919 102.456 52.2901 102.662 52.5173C104.491 54.2755 106.924 55.257 109.455 55.257C111.986 55.257 114.42 54.2755 116.248 52.5173C116.454 52.2901 116.565 51.9919 116.559 51.6847C116.552 51.3774 116.427 51.0846 116.211 50.867C115.995 50.6493 115.704 50.5235 115.398 50.5156C115.092 50.5077 114.795 50.6182 114.568 50.8244V50.8244Z" fill="#56B14D"/>
<path d="M117.632 95.822C119.808 94.1126 121.398 91.764 122.182 89.1035C122.965 86.4431 122.902 83.6035 122.002 80.9806C121.102 78.3577 119.409 76.0823 117.16 74.4716C114.911 72.8608 112.218 71.9951 109.455 71.9951C108.926 71.9915 108.397 72.0238 107.871 72.0918C105.261 72.4023 102.801 73.4847 100.804 75.2016C98.8076 76.9185 97.3637 79.1925 96.6559 81.735C95.9482 84.2775 96.0085 86.9739 96.8291 89.482C97.6497 91.99 99.1937 94.1967 101.265 95.822L98.8851 109.368C98.7635 110.061 98.7944 110.773 98.9757 111.454C99.157 112.134 99.4844 112.766 99.9346 113.306C100.385 113.846 100.947 114.28 101.582 114.579C102.217 114.877 102.909 115.033 103.611 115.034H115.287C115.988 115.033 116.68 114.877 117.315 114.579C117.95 114.28 118.513 113.846 118.963 113.306C119.413 112.766 119.74 112.134 119.922 111.454C120.103 110.773 120.134 110.061 120.012 109.368L117.632 95.822ZM115.3 111.447H103.6C103.427 111.447 103.256 111.41 103.098 111.336C102.941 111.263 102.802 111.156 102.691 111.022C102.579 110.889 102.499 110.733 102.454 110.565C102.409 110.397 102.402 110.221 102.433 110.049L105.104 94.9017C105.141 94.6554 105.103 94.4035 104.995 94.1793C104.887 93.9552 104.713 93.7692 104.497 93.6461C102.675 92.5532 101.262 90.889 100.474 88.9099C99.6858 86.9308 99.5673 84.7464 100.137 82.6931C100.706 80.6397 101.932 78.8313 103.625 77.5462C105.318 76.2611 107.385 75.5707 109.507 75.5811C111.63 75.5915 113.69 76.3022 115.37 77.6039C117.051 78.9055 118.259 80.7258 118.808 82.7846C119.358 84.8435 119.218 87.0266 118.411 88.9979C117.604 90.9692 116.174 92.6194 114.341 93.6944C114.139 93.8162 113.98 93.9974 113.884 94.2134C113.789 94.4294 113.762 94.6697 113.807 94.9017L116.462 110.049C116.493 110.22 116.486 110.396 116.441 110.563C116.397 110.731 116.317 110.887 116.206 111.02C116.095 111.154 115.957 111.261 115.8 111.335C115.644 111.408 115.473 111.447 115.3 111.447V111.447Z" fill="url(#paint2_linear_742_1057)"/>
<path opacity="0.28" d="M109.457 135.929C139.941 135.929 164.654 134.063 164.654 131.762C164.654 129.461 139.941 127.596 109.457 127.596C78.9723 127.596 54.2598 129.461 54.2598 131.762C54.2598 134.063 78.9723 135.929 109.457 135.929Z" fill="url(#paint3_radial_742_1057)"/>
<path d="M29.8348 144.924C29.1723 144.924 28.4895 144.958 27.786 145.026C27.1789 145.076 26.5784 145.188 25.9935 145.359C25.7552 145.415 25.5358 145.534 25.3577 145.702C25.2114 145.877 25.1385 146.102 25.1545 146.33V159.922C25.1545 160.551 25.5278 160.866 26.274 160.866C26.462 160.868 26.6495 160.846 26.8322 160.802C27.0005 160.759 27.1366 160.721 27.2408 160.686V155.197H29.8081C31.4977 155.336 33.1773 154.83 34.5122 153.781C35.0228 153.295 35.4232 152.705 35.6864 152.051C35.9496 151.396 36.0696 150.692 36.0376 149.987C36.0702 149.3 35.9537 148.614 35.6969 147.977C35.44 147.34 35.0488 146.766 34.5497 146.295C33.2007 145.269 31.5211 144.781 29.8348 144.924V144.924ZM32.8374 152.613C31.9049 153.229 30.7989 153.525 29.6851 153.456H27.217V146.88C27.5723 146.813 27.9754 146.757 28.4242 146.714C28.8729 146.671 29.3271 146.649 29.7866 146.649C30.8758 146.58 31.959 146.862 32.8775 147.454C33.2486 147.759 33.5398 148.149 33.726 148.593C33.9122 149.036 33.9876 149.518 33.9458 149.998C33.9872 150.492 33.9081 150.989 33.7149 151.445C33.5217 151.901 33.2205 152.303 32.8374 152.616V152.613ZM44.0032 148.603C43.1406 148.591 42.2804 148.699 41.4467 148.922C40.8144 149.082 40.2094 149.336 39.6516 149.676C39.3644 149.847 39.1174 150.078 38.9277 150.355C38.7694 150.638 38.6946 150.961 38.7115 151.285V159.946C38.7115 160.56 39.0749 160.866 39.8068 160.866C39.9949 160.868 40.1823 160.846 40.3651 160.802C40.4948 160.772 40.6222 160.733 40.7469 160.686V151.133C41.2132 150.881 41.7084 150.687 42.2215 150.556C42.8945 150.385 43.587 150.303 44.2811 150.314C44.549 150.315 44.8167 150.332 45.0826 150.365C45.3497 150.4 45.5739 150.435 45.7449 150.467C45.8335 150.357 45.9024 150.231 45.948 150.097C46.0005 149.945 46.0268 149.785 46.0256 149.625C46.0345 148.945 45.3602 148.605 44.0032 148.605V148.603ZM49.5731 143.926C49.3974 143.92 49.2222 143.949 49.0582 144.013C48.8942 144.076 48.7448 144.173 48.6193 144.297C48.3831 144.539 48.2508 144.864 48.2508 145.203C48.2508 145.542 48.3831 145.868 48.6193 146.11C48.7447 146.234 48.8939 146.331 49.0579 146.394C49.2219 146.458 49.3974 146.487 49.5731 146.48C49.9103 146.48 50.2337 146.346 50.4721 146.106C50.7106 145.867 50.8445 145.542 50.8445 145.203C50.8445 144.865 50.7106 144.54 50.4721 144.3C50.2337 144.061 49.9103 143.926 49.5731 143.926V143.926ZM49.5222 148.806C49.3289 148.805 49.1363 148.827 48.948 148.871C48.8139 148.901 48.6817 148.94 48.5525 148.986V159.946C48.5525 160.559 48.9168 160.866 49.6452 160.866C49.8341 160.868 50.0224 160.846 50.206 160.802C50.3357 160.772 50.4635 160.733 50.5882 160.686V149.751C50.59 149.123 50.2354 148.809 49.5248 148.809L49.5222 148.806ZM63.3593 148.705C63.0567 148.691 62.7563 148.761 62.4913 148.908C62.0514 150.518 61.5396 152.162 60.9554 153.839C60.3713 155.517 59.74 157.216 59.0615 158.937H58.9598C58.8583 158.646 58.7275 158.296 58.5672 157.888C58.4069 157.48 58.2457 157.059 58.0836 156.624C57.9215 156.19 57.7648 155.764 57.6134 155.347C57.4611 154.929 57.3331 154.577 57.2315 154.288L55.653 149.727C55.561 149.442 55.4086 149.18 55.2066 148.959C55.0117 148.795 54.7607 148.713 54.5068 148.731C54.2945 148.733 54.0857 148.785 53.8976 148.884C53.7046 148.977 53.5385 149.117 53.4144 149.292C53.5675 149.829 53.7625 150.429 53.9994 151.092C54.2362 151.756 54.4909 152.454 54.7634 153.188C55.0341 153.903 55.3136 154.631 55.6021 155.372C55.8906 156.104 56.171 156.793 56.4408 157.44C56.7106 158.087 56.9751 158.666 57.2048 159.176C57.4345 159.686 57.6375 160.088 57.7898 160.378C57.9222 160.574 58.1073 160.728 58.3233 160.823C58.5393 160.918 58.7775 160.95 59.0107 160.914C59.2382 160.915 59.4648 160.889 59.6863 160.837C59.8456 160.808 59.9977 160.746 60.1327 160.657C60.3999 160.147 60.6964 159.541 61.0089 158.843C61.3215 158.146 61.6365 157.416 61.949 156.659C62.2616 155.903 62.5581 155.141 62.8386 154.373C63.1191 153.606 63.3729 152.906 63.5892 152.265C63.8056 151.623 63.9871 151.073 64.1234 150.604C64.2296 150.285 64.2979 149.954 64.3265 149.619C64.3344 149.495 64.3147 149.371 64.2685 149.256C64.2222 149.141 64.1507 149.038 64.0594 148.954C63.865 148.789 63.6169 148.701 63.3623 148.707L63.3593 148.705ZM74.6269 149.598C73.5989 148.885 72.3644 148.535 71.1169 148.603C70.4673 148.598 69.819 148.663 69.1829 148.796C68.6361 148.903 68.1062 149.084 67.6069 149.332C67.3926 149.438 67.2016 149.586 67.0457 149.767C66.9222 149.937 66.8594 150.144 66.867 150.355C66.867 150.538 66.926 150.717 67.0353 150.864C67.1421 151.015 67.2657 151.152 67.4038 151.275C67.9432 150.999 68.5044 150.768 69.0815 150.585C69.7309 150.378 70.4087 150.275 71.0902 150.279C71.8226 150.24 72.5473 150.447 73.1497 150.867C73.418 151.095 73.6275 151.385 73.7605 151.712C73.8935 152.039 73.946 152.393 73.9138 152.745V153.461L70.302 153.821C69.1979 153.879 68.1319 154.246 67.2248 154.88C66.8539 155.186 66.5612 155.576 66.3707 156.018C66.1802 156.459 66.0977 156.941 66.1298 157.421C66.1019 157.951 66.2072 158.479 66.436 158.956C66.6647 159.434 67.0095 159.846 67.4387 160.155C68.5437 160.85 69.8371 161.181 71.1384 161.102C71.9143 161.113 72.6881 161.023 73.4409 160.834C74 160.696 74.5387 160.486 75.0436 160.209C75.2933 160.075 75.514 159.892 75.6929 159.672C75.8536 159.417 75.9292 159.117 75.9091 158.816V152.761C75.9635 152.17 75.8758 151.574 75.6531 151.024C75.4304 150.474 75.0796 149.986 74.6298 149.601L74.6269 149.598ZM73.9164 158.771C73.6005 158.955 73.262 159.097 72.9094 159.192C72.3337 159.351 71.7379 159.424 71.141 159.409C70.358 159.462 69.5776 159.274 68.9025 158.873C68.6635 158.707 68.4703 158.483 68.3413 158.221C68.2123 157.96 68.1518 157.67 68.1652 157.378C68.1491 157.112 68.1988 156.845 68.3096 156.602C68.4205 156.359 68.5893 156.148 68.8011 155.986C69.39 155.617 70.065 155.41 70.7589 155.385L73.9138 155.052L73.9164 158.771ZM85.7422 158.873C85.4606 159.026 85.162 159.146 84.8526 159.23C84.5389 159.325 84.2136 159.377 83.8858 159.382C83.3204 159.414 82.7595 159.266 82.2831 158.958C82.0786 158.782 81.9196 158.559 81.82 158.308C81.7204 158.056 81.6833 157.784 81.7114 157.515V150.878H85.3496C85.8571 150.878 86.111 150.588 86.111 150.008C86.1122 149.848 86.0867 149.688 86.036 149.536C85.9956 149.417 85.9446 149.301 85.8837 149.19H81.7114V146.239C81.7114 145.626 81.3552 145.319 80.6429 145.319C80.4505 145.318 80.2587 145.34 80.0712 145.383C79.937 145.413 79.8048 145.451 79.6757 145.499V157.633C79.6283 158.129 79.7047 158.63 79.8977 159.089C80.0908 159.549 80.3946 159.953 80.7818 160.265C81.6359 160.832 82.6463 161.114 83.6693 161.07C84.3001 161.101 84.929 160.978 85.5019 160.71C85.6879 160.636 85.8489 160.51 85.9659 160.347C86.0828 160.184 86.1506 159.991 86.1615 159.79C86.1656 159.604 86.1224 159.419 86.036 159.254C85.9565 159.115 85.8585 158.988 85.7448 158.875L85.7422 158.873ZM98.7142 154.644C98.8108 154.536 98.8841 154.408 98.9301 154.27C98.976 154.131 98.9935 153.985 98.9812 153.839C98.9892 153.117 98.8547 152.401 98.5857 151.731C98.3344 151.11 97.9632 150.546 97.4933 150.07C97.0172 149.601 96.4497 149.235 95.8264 148.997C95.1526 148.736 94.4355 148.605 93.7133 148.613C92.9391 148.606 92.171 148.749 91.451 149.035C90.7732 149.304 90.1616 149.717 89.6585 150.247C89.1412 150.803 88.743 151.459 88.4885 152.176C88.1964 153.008 88.0541 153.886 88.0688 154.768C88.0086 155.629 88.1308 156.493 88.4268 157.303C88.7229 158.113 89.1862 158.851 89.7866 159.468C91.075 160.595 92.7504 161.173 94.4562 161.078C94.9809 161.081 95.5044 161.03 96.0188 160.925C96.4566 160.837 96.8831 160.699 97.2902 160.515C97.6125 160.374 97.906 160.175 98.1556 159.927C98.3482 159.749 98.4625 159.501 98.4735 159.238C98.474 159.034 98.417 158.835 98.3092 158.663C98.2014 158.491 98.0474 158.354 97.8647 158.266C97.4438 158.584 96.9807 158.842 96.489 159.031C95.8751 159.278 95.2187 159.4 94.5576 159.39C93.5375 159.516 92.509 159.236 91.6916 158.61C90.8742 157.985 90.3324 157.063 90.1818 156.042L98.0167 154.945C98.2733 154.923 98.5161 154.819 98.7086 154.647L98.7142 154.644ZM90.0403 154.451C89.9977 153.319 90.379 152.211 91.1089 151.347C91.4366 150.995 91.8354 150.717 92.2786 150.532C92.7217 150.347 93.1991 150.259 93.6788 150.274C94.1163 150.248 94.5542 150.316 94.9639 150.472C95.3736 150.629 95.7459 150.87 96.0563 151.181C96.6378 151.816 96.9838 152.632 97.0365 153.493L90.0403 154.451Z" fill="#1F212D"/>
<path d="M108.965 145.077C108.772 145.076 108.58 145.098 108.393 145.142C108.259 145.171 108.128 145.209 108 145.257V159.922C108 160.551 108.373 160.866 109.119 160.866C109.307 160.868 109.495 160.846 109.678 160.802C109.807 160.772 109.935 160.733 110.06 160.686V146.022C110.065 145.392 109.7 145.077 108.965 145.077ZM119.471 148.603C118.636 148.592 117.804 148.704 117.002 148.935C116.389 149.107 115.799 149.356 115.247 149.676C114.949 149.841 114.693 150.073 114.497 150.352C114.342 150.618 114.267 150.924 114.28 151.232V159.943C114.28 160.557 114.644 160.864 115.373 160.864C115.562 160.865 115.75 160.843 115.934 160.799C116.064 160.769 116.191 160.731 116.316 160.684V151.13C116.738 150.886 117.186 150.689 117.651 150.542C118.236 150.359 118.845 150.269 119.457 150.274C120.225 150.236 120.981 150.471 121.594 150.937C121.877 151.202 122.097 151.528 122.236 151.891C122.375 152.255 122.429 152.645 122.396 153.032V159.93C122.396 160.543 122.76 160.85 123.488 160.85C123.668 160.849 123.847 160.828 124.023 160.786C124.157 160.757 124.289 160.718 124.418 160.67V152.93C124.469 152.314 124.375 151.694 124.143 151.121C123.911 150.548 123.548 150.038 123.082 149.633C122.025 148.896 120.755 148.534 119.471 148.603V148.603ZM134.374 158.873C134.092 159.027 133.794 159.146 133.484 159.23C133.171 159.325 132.845 159.377 132.517 159.383C131.952 159.415 131.391 159.267 130.914 158.961C130.71 158.785 130.551 158.562 130.451 158.311C130.352 158.059 130.314 157.787 130.343 157.518V150.875H133.981C134.491 150.875 134.745 150.585 134.745 150.006C134.747 149.845 134.721 149.686 134.67 149.534C134.63 149.415 134.579 149.3 134.518 149.19H130.345V146.239C130.345 145.625 129.989 145.319 129.277 145.319C129.084 145.317 128.891 145.339 128.703 145.383C128.569 145.413 128.438 145.451 128.31 145.498V157.633C128.263 158.129 128.339 158.629 128.532 159.088C128.725 159.547 129.029 159.951 129.416 160.263C130.27 160.83 131.281 161.111 132.303 161.067C132.933 161.099 133.561 160.976 134.133 160.711C134.32 160.637 134.481 160.511 134.599 160.348C134.716 160.185 134.785 159.991 134.796 159.79C134.8 159.604 134.757 159.419 134.67 159.254C134.59 159.114 134.491 158.986 134.376 158.873H134.374ZM146.114 150.073C145.639 149.603 145.073 149.238 144.45 149C143.776 148.739 143.059 148.608 142.337 148.616C141.563 148.609 140.795 148.752 140.074 149.037C139.397 149.307 138.785 149.721 138.282 150.25C137.765 150.806 137.367 151.463 137.112 152.179C136.82 153.011 136.678 153.889 136.693 154.771C136.632 155.631 136.753 156.495 137.049 157.305C137.345 158.115 137.808 158.853 138.407 159.471C139.695 160.597 141.369 161.175 143.074 161.081C143.6 161.084 144.124 161.033 144.64 160.928C145.077 160.84 145.504 160.704 145.911 160.52C146.232 160.379 146.525 160.18 146.774 159.932C146.966 159.754 147.081 159.506 147.092 159.243C147.092 159.04 147.035 158.841 146.927 158.669C146.82 158.497 146.665 158.359 146.483 158.272C146.062 158.59 145.599 158.847 145.107 159.036C144.492 159.284 143.835 159.406 143.173 159.396C142.153 159.521 141.125 159.241 140.307 158.616C139.49 157.99 138.948 157.069 138.797 156.048L146.632 154.95C146.896 154.935 147.147 154.832 147.345 154.658C147.442 154.549 147.516 154.422 147.562 154.283C147.608 154.145 147.625 153.998 147.613 153.853C147.621 153.131 147.486 152.414 147.217 151.744C146.965 151.119 146.59 150.55 146.114 150.073V150.073ZM138.675 154.454C138.632 153.322 139.013 152.214 139.743 151.35C140.07 150.995 140.468 150.715 140.911 150.528C141.354 150.34 141.832 150.25 142.313 150.263C142.75 150.238 143.188 150.306 143.598 150.462C144.008 150.618 144.38 150.86 144.69 151.17C145.272 151.805 145.618 152.622 145.671 153.483L138.675 154.454ZM155.846 148.603C154.983 148.592 154.123 148.699 153.289 148.922C152.657 149.082 152.052 149.337 151.494 149.676C151.208 149.847 150.961 150.078 150.77 150.352C150.613 150.636 150.538 150.958 150.554 151.283V159.943C150.554 160.557 150.918 160.864 151.646 160.864C151.835 160.865 152.024 160.843 152.207 160.799C152.337 160.769 152.465 160.731 152.589 160.684V151.13C153.056 150.877 153.552 150.684 154.066 150.553C154.739 150.382 155.432 150.301 156.126 150.312C156.398 150.311 156.67 150.327 156.941 150.36C157.208 150.395 157.433 150.43 157.603 150.462C157.692 150.351 157.76 150.226 157.806 150.092C157.859 149.94 157.885 149.78 157.884 149.619C157.884 148.942 157.204 148.603 155.846 148.603V148.603ZM165.331 148.603C164.497 148.592 163.665 148.704 162.863 148.935C162.249 149.107 161.66 149.356 161.108 149.676C160.811 149.842 160.554 150.073 160.358 150.352C160.203 150.618 160.128 150.924 160.141 151.232V159.943C160.141 160.558 160.502 160.864 161.234 160.864C161.423 160.865 161.611 160.843 161.795 160.799C161.924 160.769 162.052 160.731 162.176 160.684V151.13C162.599 150.886 163.047 150.689 163.512 150.542C164.097 150.359 164.708 150.269 165.321 150.274C166.088 150.237 166.845 150.471 167.458 150.937C167.741 151.202 167.96 151.529 168.099 151.892C168.238 152.255 168.293 152.645 168.259 153.032V159.93C168.259 160.543 168.623 160.85 169.352 160.85C169.536 160.85 169.72 160.828 169.899 160.786C170.033 160.757 170.166 160.718 170.295 160.67V152.93C170.346 152.314 170.252 151.694 170.02 151.121C169.788 150.548 169.425 150.038 168.959 149.633C167.899 148.893 166.623 148.531 165.334 148.603H165.331ZM182.895 150.073C182.42 149.602 181.852 149.237 181.228 149C180.556 148.739 179.839 148.608 179.118 148.616C178.344 148.609 177.575 148.752 176.855 149.037C176.177 149.307 175.565 149.721 175.06 150.25C174.544 150.807 174.146 151.463 173.89 152.179C173.6 153.011 173.459 153.889 173.473 154.771C173.413 155.632 173.535 156.495 173.831 157.306C174.127 158.116 174.591 158.854 175.191 159.471C176.479 160.597 178.153 161.175 179.858 161.081C180.383 161.084 180.908 161.033 181.423 160.928C181.862 160.841 182.289 160.704 182.697 160.52C183.018 160.379 183.311 160.18 183.56 159.932C183.753 159.754 183.867 159.506 183.878 159.243C183.879 159.04 183.822 158.841 183.714 158.669C183.606 158.497 183.452 158.359 183.269 158.272C182.849 158.59 182.387 158.847 181.896 159.036C181.282 159.283 180.626 159.406 179.965 159.396C178.945 159.521 177.916 159.241 177.099 158.616C176.281 157.99 175.74 157.069 175.589 156.048L183.424 154.95C183.687 154.935 183.937 154.832 184.135 154.658C184.231 154.549 184.305 154.422 184.351 154.283C184.397 154.145 184.414 153.998 184.402 153.853C184.41 153.131 184.275 152.414 184.006 151.744C183.751 151.118 183.373 150.549 182.895 150.073V150.073ZM175.456 154.454C175.413 153.321 175.794 152.214 176.524 151.35C176.851 150.996 177.249 150.715 177.692 150.528C178.135 150.34 178.613 150.25 179.094 150.263C179.531 150.238 179.969 150.305 180.379 150.462C180.789 150.618 181.161 150.859 181.471 151.17C182.053 151.805 182.399 152.622 182.452 153.483L175.456 154.454ZM193.719 159.256C193.647 159.118 193.557 158.989 193.452 158.873C193.17 159.027 192.87 159.146 192.56 159.23C192.246 159.325 191.921 159.377 191.593 159.383C191.028 159.415 190.467 159.267 189.99 158.961C189.785 158.785 189.626 158.562 189.526 158.311C189.426 158.059 189.388 157.787 189.416 157.518V150.875H193.054C193.562 150.875 193.816 150.585 193.818 150.006C193.82 149.845 193.794 149.686 193.743 149.534C193.703 149.415 193.652 149.3 193.591 149.19H189.405V146.239C189.405 145.625 189.049 145.319 188.337 145.319C188.144 145.318 187.952 145.339 187.765 145.383C187.632 145.413 187.5 145.451 187.372 145.498V157.633C187.325 158.129 187.401 158.629 187.595 159.088C187.788 159.547 188.091 159.951 188.478 160.263C189.332 160.83 190.343 161.111 191.366 161.067C191.996 161.099 192.625 160.976 193.198 160.711C193.385 160.637 193.546 160.511 193.663 160.348C193.781 160.185 193.849 159.991 193.861 159.79C193.86 159.603 193.811 159.419 193.719 159.256V159.256Z" fill="#4A9E41"/>
<path d="M48.5905 185.806C47.7001 183.15 46.8097 180.572 45.9192 178.072C45.0288 175.571 44.2042 173.335 43.4456 171.364C43.3038 171.017 43.0862 170.707 42.8087 170.456C42.5312 170.205 42.2011 170.021 41.8428 169.915C40.9819 169.627 40.0789 169.487 39.1715 169.5C38.4243 169.499 37.6801 169.594 36.9571 169.784C36.3989 169.91 35.8599 170.111 35.3544 170.38C34.667 172.138 33.8602 174.25 32.9342 176.717C32.0081 179.183 31.0893 181.692 30.1775 184.245C29.2674 186.797 28.4091 189.22 27.6024 191.513C26.7956 193.806 26.1721 195.677 25.7323 197.128C25.5542 197.575 25.4172 197.98 25.3211 198.343C25.2181 198.705 25.1656 199.078 25.1658 199.454C25.1452 199.786 25.2104 200.118 25.355 200.418C25.4996 200.717 25.719 200.974 25.9915 201.163C26.6207 201.564 27.3569 201.763 28.1016 201.732C28.5162 201.738 28.9304 201.704 29.3384 201.63C29.6743 201.562 30.0023 201.459 30.3164 201.321L32.8406 193.404H45.4089L47.3644 199.355C47.5409 200.048 47.8966 200.682 48.3955 201.193C48.9809 201.605 49.6925 201.795 50.4042 201.729C51.0133 201.745 51.6188 201.63 52.1807 201.394C52.6392 201.198 53.0514 200.907 53.3908 200.541C52.7373 198.471 51.9991 196.16 51.1764 193.608C50.3536 191.056 49.4916 188.455 48.5905 185.806ZM34.0641 188.961C34.4772 187.72 34.9066 186.436 35.3518 185.109C35.797 183.782 36.2422 182.471 36.6874 181.176C37.1326 179.882 37.5617 178.649 37.9748 177.476C38.388 176.302 38.7654 175.251 39.1073 174.321H39.3747C39.6151 175.115 39.9239 176.072 40.3014 177.192L41.5115 180.787C41.9407 182.064 42.3859 183.401 42.8472 184.797C43.3084 186.194 43.7626 187.582 44.2096 188.961H34.0641ZM80.5766 195.068C79.576 195.743 78.5003 196.299 77.3712 196.723C75.9691 197.235 74.4843 197.481 72.9928 197.447C71.584 197.509 70.1779 197.275 68.8649 196.758C67.5519 196.242 66.3609 195.455 65.3689 194.448C63.2842 191.993 62.2476 188.812 62.4841 185.594C62.4542 183.856 62.715 182.124 63.2559 180.473C63.7089 179.098 64.4362 177.831 65.3931 176.749C66.292 175.756 67.4009 174.977 68.6386 174.471C69.9565 173.942 71.3652 173.678 72.7844 173.696C74.2729 173.647 75.7552 173.911 77.1361 174.471C78.1987 174.942 79.2231 175.495 80.2 176.126C80.6639 175.904 81.063 175.566 81.3592 175.144C81.7136 174.672 81.8877 174.087 81.8499 173.496C81.8122 172.906 81.5654 172.348 81.1538 171.925C80.6089 171.311 79.9429 170.818 79.1982 170.476C78.2287 170.019 77.2083 169.68 76.1584 169.467C74.8449 169.195 73.5057 169.065 72.1646 169.078C70.1409 169.069 68.133 169.433 66.2399 170.152C64.4163 170.84 62.7577 171.907 61.3728 173.282C59.9199 174.757 58.7882 176.518 58.0496 178.455C57.1877 180.734 56.7679 183.157 56.8128 185.594C56.7607 188.055 57.1712 190.503 58.0229 192.811C58.7483 194.74 59.8822 196.487 61.346 197.933C62.7558 199.296 64.4424 200.337 66.2905 200.983C69.8699 202.16 73.7048 202.312 77.3656 201.423C78.4506 201.138 79.4907 200.703 80.4563 200.13C80.9612 199.858 81.3938 199.468 81.7172 198.993C81.9715 198.592 82.106 198.126 82.1046 197.651C82.1135 197.095 81.942 196.55 81.6158 196.1C81.3354 195.695 80.9831 195.345 80.5766 195.068V195.068ZM110.092 195.068C109.091 195.743 108.015 196.299 106.886 196.723C105.484 197.235 103.999 197.481 102.508 197.447C101.099 197.509 99.6932 197.274 98.3802 196.758C97.0672 196.241 95.8761 195.454 94.8839 194.448C92.7994 191.993 91.7629 188.812 91.999 185.594C91.9691 183.856 92.2302 182.124 92.7712 180.473C93.2244 179.098 93.9513 177.831 94.908 176.749C95.8074 175.756 96.9162 174.978 98.1536 174.471C99.4715 173.942 100.88 173.678 102.299 173.696C103.788 173.647 105.27 173.911 106.651 174.471C107.714 174.942 108.738 175.495 109.715 176.126C110.179 175.904 110.578 175.566 110.874 175.144C111.229 174.672 111.404 174.087 111.366 173.496C111.328 172.906 111.081 172.348 110.669 171.925C110.124 171.311 109.458 170.818 108.713 170.476C107.744 170.019 106.723 169.681 105.673 169.467C104.361 169.195 103.023 169.065 101.682 169.078C99.6588 169.069 97.6506 169.433 95.7575 170.152C93.9336 170.839 92.2749 171.906 90.8903 173.282C89.4375 174.757 88.3061 176.518 87.5675 178.455C86.7061 180.734 86.2863 183.157 86.3307 185.594C86.279 188.055 86.6895 190.503 87.5408 192.811C88.2668 194.74 89.4003 196.487 90.8636 197.933C92.2731 199.296 93.9602 200.337 95.8084 200.983C99.3878 202.16 103.223 202.312 106.884 201.423C107.968 201.138 109.009 200.703 109.974 200.13C110.479 199.858 110.912 199.468 111.235 198.993C111.489 198.592 111.624 198.126 111.623 197.651C111.631 197.095 111.459 196.551 111.133 196.1C110.852 195.695 110.499 195.345 110.092 195.068V195.068ZM138.37 196.825H123.536V187.408H135.178C135.449 187.422 135.72 187.378 135.973 187.28C136.226 187.182 136.455 187.032 136.647 186.839C137.044 186.343 137.235 185.713 137.181 185.079C137.186 184.658 137.124 184.239 137 183.837C136.911 183.518 136.762 183.22 136.562 182.957H123.531V174.372H136.716C136.992 174.384 137.266 174.335 137.52 174.227C137.774 174.12 138 173.956 138.183 173.749C138.57 173.248 138.76 172.622 138.717 171.989C138.722 171.568 138.661 171.149 138.538 170.747C138.449 170.429 138.3 170.13 138.1 169.867H121.052C120.656 169.85 120.261 169.912 119.889 170.05C119.518 170.189 119.178 170.4 118.888 170.672C118.611 170.953 118.394 171.289 118.252 171.658C118.111 172.028 118.047 172.423 118.066 172.818V198.325C118.043 198.725 118.104 199.125 118.246 199.499C118.388 199.874 118.607 200.214 118.889 200.498C119.171 200.781 119.51 201.001 119.883 201.144C120.255 201.287 120.654 201.349 121.052 201.327H136.968C137.24 201.34 137.513 201.294 137.766 201.191C138.019 201.088 138.247 200.931 138.434 200.731C138.828 200.225 139.019 199.588 138.968 198.947C138.972 198.524 138.903 198.104 138.763 197.705C138.665 197.399 138.533 197.104 138.37 196.828V196.825ZM157.376 182.96L154.39 182.08C153.101 181.774 151.89 181.201 150.834 180.398C150.482 180.085 150.204 179.698 150.019 179.264C149.834 178.83 149.748 178.36 149.766 177.889C149.75 177.292 149.884 176.7 150.153 176.167C150.423 175.635 150.82 175.178 151.31 174.839C152.612 174.003 154.145 173.604 155.688 173.698C157.253 173.681 158.809 173.917 160.299 174.399C161.507 174.772 162.646 175.34 163.673 176.081C164.096 175.797 164.458 175.432 164.741 175.008C165.039 174.556 165.192 174.023 165.179 173.481C165.165 172.827 164.897 172.205 164.431 171.748C163.843 171.15 163.143 170.675 162.372 170.35C161.373 169.917 160.326 169.605 159.254 169.419C157.963 169.187 156.653 169.075 155.341 169.084C152.433 168.925 149.556 169.755 147.175 171.439C146.195 172.191 145.409 173.168 144.885 174.289C144.36 175.41 144.112 176.641 144.161 177.878C144.138 178.963 144.32 180.043 144.696 181.06C145.044 181.957 145.58 182.768 146.267 183.44C147.005 184.15 147.847 184.744 148.764 185.2C149.816 185.73 150.911 186.172 152.036 186.52L155.899 187.708C157.281 188.051 158.566 188.705 159.658 189.621C160.054 190.01 160.364 190.479 160.568 190.996C160.772 191.513 160.865 192.068 160.841 192.623C160.86 193.281 160.73 193.934 160.463 194.534C160.196 195.134 159.797 195.666 159.297 196.09C157.91 197.095 156.212 197.571 154.507 197.431C152.744 197.479 150.992 197.124 149.384 196.396C148.161 195.838 147.024 195.107 146.01 194.222C145.453 194.469 144.959 194.841 144.567 195.309C144.152 195.799 143.931 196.426 143.948 197.069C143.964 197.765 144.241 198.43 144.723 198.931C145.34 199.591 146.084 200.118 146.91 200.482C147.989 200.973 149.121 201.338 150.284 201.568C151.708 201.855 153.159 201.994 154.611 201.981C156.327 202.005 158.036 201.779 159.687 201.311C161.049 200.932 162.321 200.28 163.427 199.395C164.405 198.59 165.189 197.573 165.719 196.42C166.259 195.227 166.533 193.929 166.52 192.618C166.577 191.483 166.391 190.35 165.977 189.292C165.562 188.235 164.928 187.279 164.116 186.488C162.17 184.806 159.863 183.6 157.376 182.962V182.96ZM191.449 186.504C189.509 184.819 187.208 183.606 184.725 182.96L181.736 182.08C180.448 181.774 179.238 181.201 178.183 180.398C177.831 180.085 177.552 179.698 177.368 179.264C177.183 178.83 177.096 178.36 177.115 177.889C177.099 177.292 177.232 176.7 177.502 176.167C177.772 175.635 178.169 175.178 178.659 174.839C179.961 174.003 181.494 173.604 183.037 173.698C184.6 173.681 186.156 173.917 187.645 174.399C188.853 174.772 189.992 175.34 191.019 176.081C191.442 175.798 191.805 175.433 192.087 175.008C192.385 174.556 192.538 174.023 192.525 173.481C192.511 172.827 192.243 172.205 191.777 171.748C191.188 171.15 190.487 170.675 189.715 170.35C188.717 169.917 187.672 169.604 186.6 169.419C185.309 169.187 183.999 169.075 182.687 169.084C179.778 168.925 176.902 169.755 174.521 171.439C173.541 172.191 172.756 173.168 172.231 174.289C171.707 175.41 171.458 176.641 171.507 177.878C171.484 178.963 171.665 180.043 172.042 181.06C172.39 181.957 172.926 182.768 173.612 183.44C174.352 184.151 175.195 184.744 176.113 185.2C177.164 185.731 178.258 186.172 179.382 186.52L183.245 187.708C184.628 188.05 185.914 188.704 187.006 189.621C187.403 190.01 187.713 190.478 187.918 190.995C188.122 191.513 188.216 192.067 188.192 192.623C188.211 193.281 188.081 193.934 187.813 194.534C187.546 195.134 187.146 195.666 186.646 196.09C185.259 197.095 183.561 197.571 181.856 197.431C180.092 197.479 178.339 197.125 176.73 196.396C175.507 195.838 174.371 195.106 173.356 194.222C172.799 194.47 172.306 194.842 171.913 195.309C171.499 195.8 171.28 196.426 171.297 197.069C171.312 197.765 171.588 198.429 172.068 198.931C172.687 199.591 173.432 200.119 174.259 200.482C175.338 200.974 176.47 201.338 177.633 201.568C179.057 201.855 180.507 201.994 181.96 201.981C183.675 202.005 185.385 201.779 187.036 201.311C188.398 200.931 189.67 200.279 190.776 199.395C191.754 198.59 192.537 197.573 193.067 196.42C193.609 195.227 193.883 193.929 193.869 192.618C193.921 191.486 193.732 190.355 193.315 189.301C192.898 188.247 192.263 187.295 191.451 186.506L191.449 186.504Z" fill="#1F212D"/>
<path d="M198.057 172.95C198.053 172.415 198.152 171.884 198.348 171.386C198.535 170.907 198.817 170.472 199.176 170.106C199.544 169.736 199.979 169.441 200.458 169.237C201.522 168.802 202.712 168.802 203.776 169.237C204.26 169.442 204.701 169.738 205.074 170.109C205.438 170.475 205.725 170.91 205.918 171.389C206.316 172.393 206.316 173.512 205.918 174.517C205.722 174.999 205.432 175.438 205.065 175.806C204.698 176.175 204.262 176.466 203.781 176.663C202.716 177.087 201.529 177.087 200.464 176.663C199.982 176.462 199.546 176.166 199.181 175.791C198.824 175.421 198.542 174.983 198.353 174.503C198.157 174.009 198.056 173.482 198.057 172.95V172.95ZM198.949 172.95C198.946 173.393 199.025 173.832 199.181 174.246C199.324 174.628 199.542 174.978 199.823 175.273C200.105 175.568 200.447 175.799 200.824 175.952C201.664 176.278 202.594 176.278 203.434 175.952C203.812 175.8 204.154 175.569 204.438 175.276C204.719 174.981 204.937 174.631 205.079 174.249C205.389 173.413 205.389 172.493 205.079 171.657C204.937 171.274 204.719 170.925 204.438 170.629C204.154 170.336 203.812 170.106 203.434 169.953C202.593 169.628 201.662 169.628 200.821 169.953C200.443 170.106 200.101 170.336 199.817 170.629C199.537 170.925 199.319 171.274 199.176 171.657C199.022 172.07 198.944 172.509 198.949 172.95V172.95ZM201.642 173.39V174.694C201.502 174.718 201.361 174.729 201.219 174.726C201.113 174.731 201.008 174.709 200.912 174.662C200.835 174.619 200.798 174.514 200.798 174.353V171.338C200.798 171.182 200.915 171.085 201.155 171.045C201.295 171.015 201.436 170.993 201.578 170.981C201.708 170.981 201.845 170.965 202 170.965C202.428 170.94 202.853 171.051 203.215 171.281C203.453 171.468 203.609 171.742 203.647 172.044C203.686 172.345 203.604 172.65 203.421 172.891C203.267 173.073 203.067 173.209 202.841 173.283L203.768 174.423C203.743 174.518 203.685 174.601 203.605 174.656C203.516 174.723 203.408 174.758 203.298 174.756C203.189 174.748 203.084 174.715 202.991 174.658C202.898 174.601 202.82 174.522 202.763 174.428L202.066 173.401L201.642 173.39ZM202.16 172.722C202.571 172.722 202.777 172.531 202.777 172.151C202.779 172.075 202.763 172.001 202.729 171.933C202.694 171.866 202.644 171.809 202.582 171.767C202.427 171.667 202.245 171.619 202.061 171.627C201.983 171.627 201.911 171.627 201.842 171.627C201.773 171.627 201.706 171.641 201.639 171.651V172.711L202.16 172.722Z" fill="#1F212D"/>
<defs>
<linearGradient id="paint0_linear_742_1057" x1="109.248" y1="18.2648" x2="109.321" y2="57.5964" gradientUnits="userSpaceOnUse">
<stop stop-color="#56B14D"/>
<stop offset="0.541" stop-color="#4A9E41"/>
<stop offset="1" stop-color="#3E7F34"/>
</linearGradient>
<linearGradient id="paint1_linear_742_1057" x1="109.458" y1="57.7238" x2="109.458" y2="130.881" gradientUnits="userSpaceOnUse">
<stop stop-color="#56B14D"/>
<stop offset="1" stop-color="#4A9E41"/>
</linearGradient>
<linearGradient id="paint2_linear_742_1057" x1="109.446" y1="114.991" x2="109.446" y2="72.5113" gradientUnits="userSpaceOnUse">
<stop stop-color="#56B14D"/>
<stop offset="1" stop-color="#4A9E41"/>
</linearGradient>
<radialGradient id="paint3_radial_742_1057" cx="0" cy="0" r="1" gradientUnits="userSpaceOnUse" gradientTransform="translate(109.457 131.762) scale(51.5539 3.89154)">
<stop stop-color="#3E7F34" stop-opacity="0.788"/>
<stop offset="1" stop-color="#3E7F34" stop-opacity="0"/>
</radialGradient>
</defs>
</svg>
