<svg width="219" height="219" viewBox="0 0 219 219" fill="none" xmlns="http://www.w3.org/2000/svg">
<path fill-rule="evenodd" clip-rule="evenodd" d="M128.483 35.1978H107.459C93.951 35.9161 88.2658 43.8001 86.724 47.9348C80.811 65.7001 77.088 88.625 74.46 105.199L74.3023 106.163L73.4263 114.047C73.3693 115.358 73.5021 116.671 73.8205 117.945C75.4849 122.754 80.4956 126.801 91.542 122.771C101.975 118.234 114.318 112.601 127.046 106.276C134.3 102.089 144.925 92.4794 145.442 80.3293C145.346 71.3153 145.039 61.872 144.426 52.6827V52.6127C144.426 51.8593 144.33 50.9833 144.268 50.081C144.163 48.329 144.058 46.4544 143.936 45.0265C143.774 44.1128 143.54 43.2135 143.235 42.3372C141.483 38.4039 137.979 36.503 134.343 35.592C132.401 35.3275 130.443 35.1958 128.483 35.1978ZM127.686 53.5412C127.688 53.2974 127.642 53.0556 127.55 52.8298C127.458 52.604 127.322 52.3988 127.15 52.226C126.978 52.0532 126.774 51.9163 126.548 51.8232C126.323 51.7302 126.081 51.6829 125.837 51.6841C123.042 51.6841 120.275 52.2348 117.693 53.3046C115.11 54.3745 112.764 55.9426 110.788 57.9194C108.812 59.8962 107.245 62.2429 106.177 64.8255C105.108 67.408 104.558 70.1759 104.559 72.9709V79.9789C104.559 83.0131 103.354 85.9231 101.208 88.0686C99.063 90.2141 96.153 91.4195 93.1188 91.4195C92.613 91.4218 92.1286 91.6237 91.771 91.9813C91.4134 92.339 91.2114 92.8234 91.2091 93.3291V99.1195C91.2091 99.612 91.4048 100.084 91.7531 100.433C92.1013 100.781 92.5737 100.977 93.0662 100.977C98.7058 100.974 104.114 98.7342 108.103 94.7481C112.093 90.7619 114.337 85.3556 114.344 79.7161V72.7081C114.344 69.6739 115.55 66.7639 117.695 64.6184C119.841 62.4729 122.751 61.2675 125.785 61.2675C126.29 61.2652 126.773 61.063 127.13 60.7051C127.486 60.3472 127.686 59.8628 127.686 59.3579V53.5412Z" fill="#1EBFBF"/>
<path d="M125.837 51.6841C126.08 51.6829 126.321 51.73 126.546 51.8224C126.771 51.9149 126.975 52.051 127.147 52.2229C127.319 52.3948 127.455 52.599 127.547 52.8238C127.64 53.0485 127.687 53.2894 127.686 53.5325V59.3228C127.686 59.8278 127.486 60.3122 127.13 60.6701C126.773 61.028 126.29 61.2302 125.785 61.2325C124.279 61.2325 122.789 61.5296 121.399 62.1067C120.008 62.6838 118.746 63.5297 117.683 64.5957C116.62 65.6618 115.778 66.9271 115.205 68.3192C114.632 69.7113 114.34 71.2028 114.344 72.7081V79.7161C114.344 85.3602 112.103 90.7732 108.113 94.765C104.122 98.7568 98.7103 101.001 93.0662 101.003C92.5737 101.003 92.1013 100.807 91.7531 100.459C91.4048 100.111 91.2091 99.6383 91.2091 99.1458V93.3554C91.2114 92.8497 91.4134 92.3653 91.771 92.0076C92.1286 91.65 92.613 91.448 93.1188 91.4457C94.6212 91.4457 96.1089 91.1498 97.4969 90.5749C98.8849 89.9999 100.146 89.1572 101.208 88.0949C102.271 87.0325 103.114 85.7713 103.688 84.3833C104.263 82.9953 104.559 81.5076 104.559 80.0052V72.9972C104.555 70.2 105.102 67.4293 106.169 64.8437C107.236 62.2581 108.803 59.9082 110.779 57.9287C112.755 55.9491 115.103 54.3787 117.687 53.3071C120.27 52.2356 123.04 51.6841 125.837 51.6841Z" fill="white"/>
<path d="M203.889 152.844C203.886 154.148 204.269 155.422 204.991 156.507C205.713 157.592 206.741 158.438 207.944 158.937C209.147 159.437 210.472 159.569 211.75 159.315C213.028 159.061 214.202 158.433 215.123 157.511C216.043 156.589 216.67 155.414 216.922 154.136C217.174 152.857 217.041 151.533 216.54 150.33C216.038 149.128 215.191 148.101 214.105 147.38C213.02 146.66 211.744 146.278 210.441 146.283C208.703 146.286 207.036 146.978 205.808 148.208C204.579 149.438 203.889 151.106 203.889 152.844ZM205.404 152.844C205.423 151.85 205.736 150.884 206.302 150.067C206.868 149.25 207.663 148.618 208.587 148.251C209.511 147.884 210.523 147.799 211.496 148.005C212.468 148.211 213.358 148.7 214.054 149.41C214.75 150.12 215.22 151.02 215.406 151.997C215.592 152.973 215.485 153.983 215.099 154.899C214.714 155.816 214.066 156.597 213.237 157.147C212.408 157.696 211.436 157.988 210.441 157.987C209.771 157.986 209.108 157.851 208.491 157.591C207.873 157.331 207.314 156.95 206.845 156.472C206.376 155.993 206.007 155.426 205.76 154.803C205.512 154.18 205.392 153.514 205.404 152.844ZM211.536 156.348H213.411L211.992 153.598C212.4 153.433 212.749 153.15 212.994 152.784C213.24 152.419 213.37 151.988 213.367 151.548C213.359 151.236 213.29 150.929 213.162 150.645C213.035 150.36 212.852 150.103 212.625 149.89C212.397 149.676 212.13 149.51 211.838 149.401C211.546 149.291 211.235 149.241 210.923 149.253H208.111V156.322H209.802V153.869H210.319L211.536 156.348ZM209.784 152.512V150.672H210.608C210.741 150.654 210.876 150.664 211.004 150.702C211.132 150.741 211.251 150.806 211.352 150.894C211.453 150.982 211.534 151.091 211.589 151.212C211.644 151.334 211.673 151.467 211.673 151.601C211.673 151.734 211.644 151.867 211.589 151.989C211.534 152.111 211.453 152.219 211.352 152.307C211.251 152.395 211.132 152.46 211.004 152.499C210.876 152.537 210.741 152.547 210.608 152.529L209.784 152.512Z" fill="#222E3A"/>
<path d="M200.113 160.071H191.686L183.452 168.902V146.292H177.005V183.82H183.452V177.548L186.08 174.744L192.378 183.82H200.262L190.53 170.067L200.113 160.071Z" fill="#222E3A"/>
<path d="M174.622 160.001C174.14 159.958 173.676 160.001 173.15 160.001C171.144 160.001 167.894 160.483 166.449 163.619V160.001H160.317V183.811H166.668V172.966C166.668 167.859 169.348 165.958 172.598 165.958H174.657L174.622 160.001Z" fill="#222E3A"/>
<path d="M135.78 176.873C135.78 180.482 138.855 183.811 143.901 183.811C147.405 183.811 149.665 182.795 150.909 180.964L151.119 183.811H156.725V168.744C156.725 164.101 153.931 159.984 146.432 159.984C140.09 159.984 136.674 163.961 136.297 167.57L141.965 168.744C142.157 166.729 143.717 164.995 146.485 164.995C149.253 164.995 150.471 166.352 150.471 167.991C150.471 168.788 150.041 168.867 148.719 169.05L142.902 169.926C138.907 170.461 135.78 172.756 135.78 176.873ZM145.25 179.168C143.182 179.168 142.166 177.863 142.166 176.496C142.166 174.744 143.471 173.868 145.101 173.597L150.435 172.8V174.412C150.444 178.485 147.948 179.168 145.258 179.168H145.25Z" fill="#222E3A"/>
<path d="M118.26 169.865C118.4 167.237 120.012 165.231 122.64 165.231C125.706 165.231 127.02 167.307 127.02 169.962V183.811H133.389V168.849C133.389 163.637 130.612 160.036 124.629 160.036C122.377 160.036 119.793 160.212 118.26 162.051V146.292H111.891V183.82H118.26V169.865Z" fill="#222E3A"/>
<path d="M90.3857 176.952C90.6748 179.527 93.0838 183.811 100.232 183.811C106.46 183.811 109.5 180.167 109.5 176.496C109.5 173.194 107.135 170.487 102.492 169.567L99.1194 168.884C97.8142 168.656 96.9469 168.008 96.9469 166.86C96.9469 165.582 98.296 164.618 99.9866 164.618C102.685 164.618 103.701 166.309 103.894 167.64L109.255 166.493C108.966 164.066 106.697 159.984 99.9341 159.984C94.8182 159.984 91.0514 163.33 91.0514 167.369C91.0514 170.531 93.1276 173.15 97.7178 174.114L100.854 174.797C102.685 175.165 103.412 175.997 103.412 177.005C103.412 178.196 102.396 179.247 100.276 179.247C97.4725 179.247 96.0709 177.6 95.8957 175.813L90.3857 176.952Z" fill="#222E3A"/>
<path fill-rule="evenodd" clip-rule="evenodd" d="M83.912 155.77V155.674C83.9132 155.164 84.0147 154.66 84.2108 154.19C84.4069 153.719 84.6937 153.292 85.0549 152.932C85.416 152.573 85.8445 152.288 86.3157 152.094C86.787 151.9 87.2919 151.801 87.8015 151.802H89.1856V146.292H86.0495C81.2052 146.292 77.5523 149.919 77.5523 155.105V160.01H73.6541V165.967H77.5523V183.82H83.912V165.958H89.168V160.001H83.912V155.77Z" fill="#222E3A"/>
<path d="M71.2626 160.001C70.7896 159.958 70.3253 160.001 69.7997 160.001C67.7936 160.001 64.5437 160.483 63.0895 163.619V160.001H56.94V183.811H63.291V172.966C63.291 167.859 65.9628 165.958 69.2215 165.958H71.2714L71.2626 160.001Z" fill="#222E3A"/>
<path d="M47.523 183.811H53.3396V159.984H46.9974V173.868C46.9974 176.619 45.2892 177.924 42.4685 177.924C39.6478 177.924 38.1761 175.804 38.1761 173.15V160.01H31.8338V174.473C31.8338 179.641 35.0838 183.837 40.7515 183.837C43.2394 183.837 46.0075 183.496 47.3303 181.279L47.523 183.811Z" fill="#222E3A"/>
<path d="M28.908 155.472C28.1196 151.478 24.747 146.292 15.9607 146.292C9.11916 146.292 3.34633 151.084 3.34633 157.382C3.34633 162.735 7.07809 166.379 12.8422 167.526L17.9054 168.525C19.0779 168.695 20.1551 169.267 20.9536 170.142C21.7522 171.017 22.2228 172.142 22.2854 173.325C22.2854 175.822 20.1918 177.705 16.4162 177.705C11.3004 177.705 8.80381 174.561 8.53225 171.057L1.98853 172.756C2.55793 177.802 6.79776 183.855 16.3987 183.855C24.8258 183.855 29.4686 178.354 29.4686 172.905C29.4686 167.912 25.9646 163.12 19.3596 161.867L14.3051 160.912C11.6771 160.413 10.3718 158.871 10.3718 156.918C10.3718 154.57 12.6144 152.424 16.0396 152.424C20.6386 152.424 22.2679 155.472 22.6271 157.417L28.908 155.472Z" fill="#222E3A"/>
</svg>
