<?xml version="1.0" encoding="utf-8"?>
<!-- Generator: Adobe Illustrator 25.4.1, SVG Export Plug-In . SVG Version: 6.00 Build 0)  -->
<svg version="1.1" id="Шар_1" xmlns="http://www.w3.org/2000/svg" xmlns:xlink="http://www.w3.org/1999/xlink" x="0px" y="0px"
	 viewBox="0 0 1200 630" style="enable-background:new 0 0 1200 630;" xml:space="preserve">
<style type="text/css">
	.st0{fill:url(#SVGID_1_);}
	.st1{fill:url(#SVGID_00000112630721581891612080000005238745136405989510_);}
	.st2{fill:url(#SVGID_00000007397861098434574120000011521499950219212687_);}
	.st3{fill:url(#SVGID_00000119808571824430733980000016152808787557938332_);}
	.st4{fill:url(#SVGID_00000057114894270503329390000017499094476184601276_);}
	.st5{fill:#FFFFFF;}
	.st6{fill:url(#SVGID_00000166669723794891568780000010959996624311877788_);}
	.st7{fill:url(#SVGID_00000069368182383380658650000002095656409631200642_);}
	.st8{fill:url(#SVGID_00000025420159141424047330000011551633021881262256_);}
	.st9{fill:url(#SVGID_00000023973383410947021090000006519025532779867053_);}
	.st10{fill:#FFC900;}
	.st11{fill:#323232;}
	.st12{fill:#DB0B0B;}
	.st13{opacity:0.3;fill:url(#SVGID_00000085928687753781211700000003209121903717194121_);enable-background:new    ;}
	.st14{fill:#F6EDD7;}
	.st15{fill:#AE55B8;}
	.st16{fill:#87478F;stroke:#AE55B8;stroke-width:4;stroke-miterlimit:10;}
	.st17{fill:#59505E;}
	.st18{fill:#EDD7D2;}
	.st19{fill:url(#Path_30_00000016069980745492703640000000620456016131902868_);}
	.st20{fill:url(#Path_31_00000072278986444450341890000005520977361403052183_);}
	.st21{fill:#88E47B;}
	.st22{fill:url(#Path_33_00000150089670920215125500000003764185348495305141_);}
	.st23{opacity:0.28;fill:url(#Ellipse_14_00000069375870518983546600000014660758090563679666_);enable-background:new    ;}
	.st24{fill:#606060;}
</style>
<linearGradient id="SVGID_1_" gradientUnits="userSpaceOnUse" x1="329.912" y1="1318.9657" x2="769.1682" y2="617.6957" gradientTransform="matrix(1 0 0 -1 0 1202.7717)">
	<stop  offset="0" style="stop-color:#100B3F"/>
	<stop  offset="0.525" style="stop-color:#0C2E72"/>
	<stop  offset="0.995" style="stop-color:#024CA5"/>
</linearGradient>
<path class="st0" d="M0,0h1200v630H0V0z"/>
<linearGradient id="SVGID_00000094616538451419899650000002879513440748423841_" gradientUnits="userSpaceOnUse" x1="650.4551" y1="1316.9656" x2="34" y2="679.7656" gradientTransform="matrix(1 0 0 -1 0 1202.7717)">
	<stop  offset="0" style="stop-color:#133C99"/>
	<stop  offset="1" style="stop-color:#0C2F75;stop-opacity:0.1"/>
</linearGradient>
<path style="fill:url(#SVGID_00000094616538451419899650000002879513440748423841_);" d="M524,0c-6.4,168.4-73.1,336.9-250.8,425.4
	C183.7,470,88.7,486.8,0,479.1v-60.3c37.7-9.2,75.3-22.8,112-41C272.8,297.7,342.8,151.9,359.3,0H524z"/>
<linearGradient id="SVGID_00000116932258346064928760000002093705019028762253_" gradientUnits="userSpaceOnUse" x1="649.8693" y1="1209.1865" x2="84.0661" y2="624.3425" gradientTransform="matrix(1 0 0 -1 0 1202.7717)">
	<stop  offset="0" style="stop-color:#1758BF"/>
	<stop  offset="1" style="stop-color:#12397F;stop-opacity:0.1"/>
</linearGradient>
<path style="fill:url(#SVGID_00000116932258346064928760000002093705019028762253_);" d="M656.5,0c-44.9,303.7-214,435-508.4,486.8
	C97.7,495.6,48.2,498.9,0,497.1V479c88.7,7.8,183.7-9.1,273.2-53.7C450.9,336.9,517.6,168.4,524,0H656.5z"/>
<linearGradient id="SVGID_00000151519691971775643190000013302037196664145590_" gradientUnits="userSpaceOnUse" x1="936.034" y1="923.6711" x2="402.6842" y2="931.6612" gradientTransform="matrix(1 0 0 -1 0 1202.7717)">
	<stop  offset="0" style="stop-color:#0859B2"/>
	<stop  offset="1" style="stop-color:#0F3B93;stop-opacity:0.1"/>
</linearGradient>
<path style="fill:url(#SVGID_00000151519691971775643190000013302037196664145590_);" d="M818.2,43.3
	c-43.9,306.8-213.1,439.1-508.9,491.1C199.3,553.7,92.6,546.5,0,518.2v-21.1c48.2,1.8,97.7-1.5,148.1-10.4
	C442.5,435,611.6,303.7,656.5,0h167.8C824.3,0,820.3,28.3,818.2,43.3z"/>
<linearGradient id="SVGID_00000067922146727864691800000008931784199259394978_" gradientUnits="userSpaceOnUse" x1="662.1642" y1="494.8057" x2="498.4281" y2="891.9127" gradientTransform="matrix(1 0 0 -1 0 1202.7717)">
	<stop  offset="0" style="stop-color:#002D7C"/>
	<stop  offset="0.525" style="stop-color:#0C2E72"/>
	<stop  offset="0.995" style="stop-color:#0A2560"/>
</linearGradient>
<path style="fill:url(#SVGID_00000067922146727864691800000008931784199259394978_);" d="M0,484h1200v146.4H0V484z"/>
<g>
	<g>
		<path class="st5" d="M606.1,555.6v22.9h-3v-22.9H606.1z M611.5,566.6c0-1.7,0-3.1-0.1-4.5h2.7l0.2,2.7h0.1
			c0.8-1.6,2.7-3.1,5.4-3.1c2.3,0,5.8,1.4,5.8,7v9.8h-3V569c0-2.7-1-4.9-3.8-4.9c-2,0-3.5,1.4-4,3.1c-0.1,0.4-0.2,0.9-0.2,1.4v9.9
			h-3v-11.9H611.5L611.5,566.6z M637.3,568.3v2.2h-8.4v-2.2H637.3z M655.6,554.4v19.9c0,1.5,0,3.1,0.1,4.3H653l-0.1-2.9h-0.1
			c-0.9,1.8-2.9,3.2-5.6,3.2c-4,0-7-3.4-7-8.4c0-5.5,3.4-8.8,7.4-8.8c2.5,0,4.2,1.2,5,2.5h0.1v-9.8H655.6L655.6,554.4z M652.6,568.8
			c0-0.4,0-0.9-0.1-1.3c-0.4-1.9-2.1-3.5-4.3-3.5c-3.1,0-4.9,2.7-4.9,6.4c0,3.3,1.6,6.1,4.9,6.1c2,0,3.8-1.3,4.4-3.6
			c0.1-0.4,0.1-0.8,0.1-1.3v-2.8L652.6,568.8L652.6,568.8z M662.2,570.9c0.1,4,2.7,5.7,5.6,5.7c2.1,0,3.4-0.4,4.6-0.8l0.5,2.1
			c-1.1,0.5-2.9,1-5.5,1c-5.1,0-8.1-3.3-8.1-8.3s2.9-8.9,7.7-8.9c5.4,0,6.8,4.7,6.8,7.8c0,0.6-0.1,1.1-0.1,1.4H662.2z M671,568.7
			c0-1.9-0.8-4.9-4.1-4.9c-3,0-4.4,2.8-4.6,4.9H671L671,568.7z M677.6,567.5c0-2.1-0.1-3.8-0.1-5.4h2.7l0.1,2.8h0.1
			c1.2-2,3.2-3.2,5.8-3.2c4,0,7,3.4,7,8.4c0,5.9-3.6,8.8-7.5,8.8c-2.2,0-4.1-1-5.1-2.6h-0.1v8.9h-3L677.6,567.5z M680.5,571.9
			c0,0.4,0.1,0.8,0.1,1.2c0.5,2.1,2.3,3.5,4.5,3.5c3.2,0,5-2.6,5-6.4c0-3.3-1.7-6.1-4.9-6.1c-2,0-3.9,1.5-4.5,3.7
			c-0.1,0.4-0.2,0.8-0.2,1.2L680.5,571.9L680.5,571.9z M700.5,557.4v4.7h4.3v2.3h-4.3v8.9c0,2,0.6,3.2,2.2,3.2
			c0.8,0,1.4-0.1,1.7-0.2l0.1,2.2c-0.6,0.2-1.5,0.4-2.7,0.4c-1.4,0-2.5-0.4-3.2-1.3c-0.8-0.9-1.2-2.3-1.2-4.3v-9h-2.5V562h2.5v-3.9
			L700.5,557.4L700.5,557.4z M708.2,554.4h3v10.3h0.1c0.5-0.8,1.2-1.6,2.1-2.1c0.9-0.5,1.9-0.8,3.1-0.8c2.2,0,5.7,1.4,5.7,7v9.8h-3
			v-9.5c0-2.7-1-4.9-3.8-4.9c-1.9,0-3.5,1.4-4,3c-0.2,0.4-0.2,0.8-0.2,1.4v9.9h-3L708.2,554.4L708.2,554.4z M734.3,567.2
			c0-1.9,0-3.6-0.1-5.1h2.6l0.1,3.2h0.1c0.7-2.2,2.5-3.6,4.6-3.6c0.3,0,0.6,0,0.8,0.1v2.8c-0.3-0.1-0.6-0.1-1-0.1
			c-2.1,0-3.6,1.6-4,3.8c-0.1,0.4-0.1,0.9-0.1,1.4v8.8h-3L734.3,567.2L734.3,567.2z M746.7,570.9c0.1,4,2.7,5.7,5.6,5.7
			c2.1,0,3.4-0.4,4.6-0.8l0.5,2.1c-1.1,0.5-2.9,1-5.5,1c-5.1,0-8.1-3.3-8.1-8.3s2.9-8.9,7.7-8.9c5.4,0,6.8,4.7,6.8,7.8
			c0,0.6-0.1,1.1-0.1,1.4H746.7z M755.5,568.7c0-1.9-0.8-4.9-4.1-4.9c-3,0-4.4,2.8-4.6,4.9H755.5L755.5,568.7z M761.7,575.5
			c0.9,0.6,2.4,1.2,3.9,1.2c2.2,0,3.2-1.1,3.2-2.4c0-1.4-0.8-2.2-3.1-3c-3-1.1-4.4-2.7-4.4-4.7c0-2.7,2.1-4.8,5.7-4.8
			c1.7,0,3.1,0.5,4,1l-0.7,2.2c-0.6-0.4-1.8-1-3.4-1c-1.8,0-2.8,1-2.8,2.2c0,1.4,1,2,3.1,2.8c2.9,1.1,4.3,2.5,4.3,5
			c0,2.9-2.2,4.9-6.2,4.9c-1.8,0-3.5-0.4-4.6-1.1L761.7,575.5L761.7,575.5z M777.2,570.9c0.1,4,2.7,5.7,5.6,5.7
			c2.1,0,3.4-0.4,4.6-0.8l0.5,2.1c-1.1,0.5-2.9,1-5.5,1c-5.1,0-8.1-3.3-8.1-8.3s2.9-8.9,7.7-8.9c5.4,0,6.8,4.7,6.8,7.8
			c0,0.6-0.1,1.1-0.1,1.4H777.2z M786,568.7c0-1.9-0.8-4.9-4.1-4.9c-3,0-4.4,2.8-4.6,4.9H786L786,568.7z M801.7,578.6l-0.2-2.1h-0.1
			c-0.9,1.3-2.7,2.4-5,2.4c-3.3,0-5-2.3-5-4.7c0-4,3.5-6.2,9.9-6.1v-0.3c0-1.4-0.4-3.8-3.7-3.8c-1.5,0-3.1,0.5-4.3,1.2l-0.7-2
			c1.4-0.9,3.3-1.5,5.4-1.5c5,0,6.3,3.4,6.3,6.7v6.2c0,1.4,0.1,2.8,0.3,3.9L801.7,578.6L801.7,578.6z M801.2,570.2
			c-3.3-0.1-7,0.5-7,3.7c0,1.9,1.3,2.9,2.8,2.9c2.1,0,3.5-1.4,4-2.8c0.1-0.3,0.2-0.6,0.2-1V570.2L801.2,570.2z M809,567.2
			c0-1.9,0-3.6-0.1-5.1h2.6l0.1,3.2h0.1c0.7-2.2,2.5-3.6,4.6-3.6c0.3,0,0.6,0,0.8,0.1v2.8c-0.3-0.1-0.6-0.1-1-0.1
			c-2.1,0-3.6,1.6-4,3.8c-0.1,0.4-0.1,0.9-0.1,1.4v8.8h-3L809,567.2L809,567.2z M831.5,577.9c-0.8,0.4-2.5,1-4.7,1
			c-5,0-8.2-3.4-8.2-8.4c0-5.1,3.5-8.7,8.8-8.7c1.8,0,3.3,0.4,4.1,0.8l-0.7,2.3c-0.7-0.4-1.8-0.8-3.5-0.8c-3.8,0-5.8,2.8-5.8,6.2
			c0,3.8,2.4,6.2,5.7,6.2c1.7,0,2.8-0.4,3.7-0.8L831.5,577.9L831.5,577.9z M835,554.4h3v10.3h0.1c0.5-0.8,1.2-1.6,2.1-2.1
			c0.9-0.5,1.9-0.8,3.1-0.8c2.2,0,5.7,1.4,5.7,7v9.8h-3v-9.5c0-2.7-1-4.9-3.8-4.9c-1.9,0-3.5,1.4-4,3c-0.2,0.4-0.2,0.8-0.2,1.4v9.9
			h-3L835,554.4L835,554.4z M863.8,553.1v34h-2.3v-34H863.8z M879.4,555.6v9.6h11.1v-9.6h3v22.9h-3v-10.7h-11.1v10.7h-3v-22.9H879.4
			z M913.4,570.2c0,6.1-4.2,8.7-8.2,8.7c-4.5,0-7.9-3.3-7.9-8.5c0-5.5,3.6-8.7,8.2-8.7C910.2,561.7,913.4,565.2,913.4,570.2z
			 M900.4,570.4c0,3.6,2.1,6.3,5,6.3s5-2.7,5-6.4c0-2.8-1.4-6.3-4.9-6.3C901.9,564,900.4,567.2,900.4,570.4z M917.2,566.6
			c0-1.7,0-3.1-0.1-4.5h2.7l0.2,2.7h0.1c0.8-1.6,2.7-3.1,5.4-3.1c2.3,0,5.8,1.4,5.8,7v9.8h-3V569c0-2.7-1-4.9-3.8-4.9
			c-2,0-3.5,1.4-4,3.1c-0.1,0.4-0.2,0.9-0.2,1.4v9.9h-3v-11.9H917.2L917.2,566.6z M937.8,570.9c0.1,4,2.7,5.7,5.6,5.7
			c2.1,0,3.4-0.4,4.6-0.8l0.5,2.1c-1.1,0.5-2.9,1-5.5,1c-5.1,0-8.1-3.3-8.1-8.3s2.9-8.9,7.7-8.9c5.4,0,6.8,4.7,6.8,7.8
			c0,0.6-0.1,1.1-0.1,1.4H937.8z M946.5,568.7c0-1.9-0.8-4.9-4.1-4.9c-3,0-4.4,2.8-4.6,4.9H946.5L946.5,568.7z M952.7,575.5
			c0.9,0.6,2.4,1.2,3.9,1.2c2.2,0,3.2-1.1,3.2-2.4c0-1.4-0.8-2.2-3.1-3c-3-1.1-4.4-2.7-4.4-4.7c0-2.7,2.1-4.8,5.7-4.8
			c1.7,0,3.1,0.5,4,1l-0.7,2.2c-0.6-0.4-1.8-1-3.4-1c-1.8,0-2.8,1-2.8,2.2c0,1.4,1,2,3.1,2.8c2.9,1.1,4.3,2.5,4.3,5
			c0,2.9-2.2,4.9-6.2,4.9c-1.8,0-3.5-0.4-4.6-1.1L952.7,575.5L952.7,575.5z M970.2,557.4v4.7h4.3v2.3h-4.3v8.9c0,2,0.6,3.2,2.2,3.2
			c0.8,0,1.4-0.1,1.7-0.2l0.1,2.2c-0.6,0.2-1.5,0.4-2.7,0.4c-1.4,0-2.5-0.4-3.2-1.3c-0.8-0.9-1.2-2.3-1.2-4.3v-9h-2.5V562h2.5v-3.9
			L970.2,557.4L970.2,557.4z M985,567.2c0-1.9,0-3.6-0.1-5.1h2.6l0.1,3.2h0.1c0.7-2.2,2.5-3.6,4.6-3.6c0.3,0,0.6,0,0.9,0.1v2.8
			c-0.3-0.1-0.6-0.1-1-0.1c-2.1,0-3.6,1.6-4,3.8c-0.1,0.4-0.1,0.9-0.1,1.4v8.8h-3L985,567.2L985,567.2z M997.5,570.9
			c0.1,4,2.7,5.7,5.6,5.7c2.1,0,3.4-0.4,4.6-0.8l0.5,2.1c-1.1,0.5-2.9,1-5.5,1c-5.1,0-8.1-3.3-8.1-8.3s2.9-8.9,7.7-8.9
			c5.4,0,6.8,4.7,6.8,7.8c0,0.6-0.1,1.1-0.1,1.4H997.5z M1006.3,568.7c0-1.9-0.8-4.9-4.1-4.9c-3,0-4.4,2.8-4.6,4.9H1006.3
			L1006.3,568.7z M1012.5,575.5c0.9,0.6,2.4,1.2,3.9,1.2c2.2,0,3.2-1.1,3.2-2.4c0-1.4-0.8-2.2-3.1-3c-3-1.1-4.4-2.7-4.4-4.7
			c0-2.7,2.1-4.8,5.7-4.8c1.7,0,3.1,0.5,4,1l-0.7,2.2c-0.6-0.4-1.8-1-3.4-1c-1.8,0-2.8,1-2.8,2.2c0,1.4,1,2,3.1,2.8
			c2.9,1.1,4.3,2.5,4.3,5c0,2.9-2.2,4.9-6.2,4.9c-1.8,0-3.5-0.4-4.6-1.1L1012.5,575.5L1012.5,575.5z M1028,570.9
			c0.1,4,2.7,5.7,5.6,5.7c2.1,0,3.4-0.4,4.6-0.8l0.5,2.1c-1.1,0.5-2.9,1-5.5,1c-5.1,0-8.1-3.3-8.1-8.3s2.9-8.9,7.7-8.9
			c5.4,0,6.8,4.7,6.8,7.8c0,0.6-0.1,1.1-0.1,1.4H1028z M1036.8,568.7c0-1.9-0.8-4.9-4.1-4.9c-3,0-4.4,2.8-4.6,4.9H1036.8z
			 M1052.5,578.6l-0.2-2.1h-0.1c-0.9,1.3-2.7,2.4-5,2.4c-3.3,0-5-2.3-5-4.7c0-4,3.5-6.2,9.9-6.1v-0.3c0-1.4-0.4-3.8-3.7-3.8
			c-1.5,0-3.1,0.5-4.3,1.2l-0.7-2c1.4-0.9,3.3-1.5,5.4-1.5c5,0,6.3,3.4,6.3,6.7v6.2c0,1.4,0.1,2.8,0.3,3.9L1052.5,578.6
			L1052.5,578.6z M1052,570.2c-3.3-0.1-7,0.5-7,3.7c0,1.9,1.3,2.9,2.8,2.9c2.1,0,3.5-1.4,4-2.8c0.1-0.3,0.2-0.6,0.2-1V570.2
			L1052,570.2z M1059.7,567.2c0-1.9,0-3.6-0.1-5.1h2.6l0.1,3.2h0.1c0.7-2.2,2.5-3.6,4.6-3.6c0.3,0,0.6,0,0.9,0.1v2.8
			c-0.3-0.1-0.6-0.1-1-0.1c-2.1,0-3.6,1.6-4,3.8c-0.1,0.4-0.1,0.9-0.1,1.4v8.8h-3L1059.7,567.2L1059.7,567.2z M1082.3,577.9
			c-0.8,0.4-2.5,1-4.7,1c-5,0-8.2-3.4-8.2-8.4c0-5.1,3.5-8.7,8.8-8.7c1.8,0,3.3,0.4,4.1,0.8l-0.7,2.3c-0.7-0.4-1.8-0.8-3.5-0.8
			c-3.8,0-5.8,2.8-5.8,6.2c0,3.8,2.4,6.2,5.7,6.2c1.7,0,2.8-0.4,3.7-0.8L1082.3,577.9z M1085.8,554.4h3v10.3h0.1
			c0.5-0.8,1.2-1.6,2.1-2.1s1.9-0.8,3.1-0.8c2.2,0,5.7,1.4,5.7,7v9.8h-3v-9.5c0-2.7-1-4.9-3.8-4.9c-1.9,0-3.5,1.4-4,3
			c-0.2,0.4-0.2,0.8-0.2,1.4v9.9h-3L1085.8,554.4L1085.8,554.4z M1106.3,570.9c0.1,4,2.7,5.7,5.6,5.7c2.1,0,3.4-0.4,4.6-0.8l0.5,2.1
			c-1.1,0.5-2.9,1-5.5,1c-5.1,0-8.1-3.3-8.1-8.3s2.9-8.9,7.7-8.9c5.4,0,6.8,4.7,6.8,7.8c0,0.6-0.1,1.1-0.1,1.4H1106.3z
			 M1115.1,568.7c0-1.9-0.8-4.9-4.1-4.9c-3,0-4.4,2.8-4.6,4.9H1115.1z M1121.7,567.2c0-1.9,0-3.6-0.1-5.1h2.6l0.1,3.2h0.1
			c0.7-2.2,2.5-3.6,4.6-3.6c0.3,0,0.6,0,0.8,0.1v2.8c-0.3-0.1-0.6-0.1-1-0.1c-2.1,0-3.6,1.6-4,3.8c-0.1,0.4-0.1,0.9-0.1,1.4v8.8h-3
			V567.2L1121.7,567.2z M1132.4,575.5c0.9,0.6,2.4,1.2,3.9,1.2c2.2,0,3.2-1.1,3.2-2.4c0-1.4-0.8-2.2-3.1-3c-3-1.1-4.4-2.7-4.4-4.7
			c0-2.7,2.1-4.8,5.7-4.8c1.7,0,3.1,0.5,4,1l-0.7,2.2c-0.6-0.4-1.8-1-3.4-1c-1.8,0-2.8,1-2.8,2.2c0,1.4,1,2,3.1,2.8
			c2.9,1.1,4.3,2.5,4.3,5c0,2.9-2.2,4.9-6.2,4.9c-1.8,0-3.5-0.4-4.6-1.1L1132.4,575.5L1132.4,575.5z"/>
	</g>
	<g>
		<path class="st5" d="M54.4,120.1H42.5v-6.4h31.6v6.4H62v35.4h-7.6V120.1z M79.3,142.6c0.2,5.5,4.4,7.8,9.3,7.8
			c3.5,0,6-0.6,8.4-1.4l1.1,5.2c-2.6,1.1-6.2,1.9-10.5,1.9c-9.8,0-15.6-6-15.6-15.3c0-8.4,5.1-16.2,14.8-16.2c9.8,0,13,8.1,13,14.7
			c0,1.4-0.1,2.5-0.2,3.2H79.3V142.6z M92.5,137.2c0.1-2.8-1.2-7.4-6.3-7.4c-4.7,0-6.7,4.3-7,7.4H92.5z M105.5,148.4
			c1.7,1.1,5,2.2,7.7,2.2c3.3,0,4.8-1.4,4.8-3.4s-1.2-3-5-4.4c-5.9-2-8.3-5.2-8.3-8.8c0-5.3,4.4-9.4,11.4-9.4c3.3,0,6.3,0.8,8.1,1.8
			l-1.5,5.3c-1.2-0.7-3.7-1.7-6.4-1.7s-4.2,1.4-4.2,3.2c0,1.9,1.4,2.8,5.3,4.2c5.5,1.9,8,4.7,8.1,9.2c0,5.5-4.3,9.5-12.3,9.5
			c-3.7,0-6.9-0.9-9.2-2.1L105.5,148.4L105.5,148.4z M140.5,117.6v7.7h7.3v5.7h-7.3v13.3c0,3.7,1,5.6,3.9,5.6c1.4,0,2.1-0.1,3-0.3
			l0.1,5.8c-1.1,0.4-3.2,0.8-5.5,0.8c-2.9,0-5.1-0.9-6.6-2.5c-1.7-1.7-2.4-4.5-2.4-8.5V131h-4.3v-5.7h4.3v-5.6
			C133,119.7,140.5,117.6,140.5,117.6z M161.6,116.9c0,2.2-1.7,4.1-4.3,4.1c-2.5,0-4.2-1.9-4.2-4.1c0-2.4,1.7-4.2,4.3-4.2
			C159.9,112.7,161.5,114.5,161.6,116.9z M153.5,155.5v-30.2h7.6v30.2H153.5z M169.3,134.3c0-3.5-0.1-6.4-0.2-9h6.6l0.4,4.5h0.2
			c1.4-2.4,4.7-5.2,9.7-5.2c5.3,0,10.7,3.4,10.7,13v17.9h-7.6v-17c0-4.3-1.6-7.6-5.8-7.6c-3,0-5.1,2.2-6,4.5
			c-0.2,0.6-0.4,1.5-0.4,2.4v17.8h-7.6L169.3,134.3L169.3,134.3z M232.2,151.1c0,6.3-1.3,10.8-4.5,13.7c-3.1,2.8-7.5,3.7-11.7,3.7
			c-3.8,0-7.9-0.9-10.5-2.4l1.7-5.8c1.9,1.1,5.1,2.3,8.8,2.3c5,0,8.7-2.6,8.7-9.1v-2.6h-0.1c-1.7,2.7-4.8,4.5-8.8,4.5
			c-7.5,0-12.8-6.2-12.8-14.8c0-9.9,6.4-15.9,13.7-15.9c4.6,0,7.3,2.2,8.7,4.7h0.1l0.3-4h6.6c-0.1,2-0.2,4.5-0.2,8.7V151.1
			L232.2,151.1z M224.5,137.4c0-0.7-0.1-1.4-0.2-2c-0.8-2.8-3-4.9-6.2-4.9c-4.3,0-7.4,3.7-7.4,9.9c0,5.1,2.6,9.3,7.4,9.3
			c2.9,0,5.3-1.9,6.2-4.6c0.2-0.7,0.3-1.8,0.3-2.7v-5H224.5z M261.9,117.6v7.7h7.3v5.7h-7.3v13.3c0,3.7,1,5.6,3.9,5.6
			c1.4,0,2.1-0.1,3-0.3l0.1,5.8c-1.1,0.4-3.2,0.8-5.5,0.8c-2.9,0-5.1-0.9-6.6-2.5c-1.7-1.7-2.4-4.5-2.4-8.5V131h-4.3v-5.7h4.3v-5.6
			C254.4,119.7,261.9,117.6,261.9,117.6z M274.9,111.5h7.6v17.9h0.1c0.9-1.4,2.2-2.6,3.8-3.4c1.5-0.9,3.3-1.4,5.3-1.4
			c5.1,0,10.5,3.4,10.5,13.1v17.8h-7.6v-17c0-4.3-1.6-7.7-5.8-7.7c-3,0-5.1,2-6,4.3c-0.2,0.7-0.3,1.5-0.3,2.3v18.1h-7.6V111.5
			L274.9,111.5z M315.8,142.6c0.2,5.5,4.4,7.8,9.3,7.8c3.5,0,6-0.6,8.4-1.4l1.1,5.2c-2.6,1.1-6.2,1.9-10.5,1.9
			c-9.8,0-15.6-6-15.6-15.3c0-8.4,5.1-16.2,14.8-16.2c9.8,0,13,8.1,13,14.7c0,1.4-0.1,2.5-0.2,3.2h-20.3L315.8,142.6L315.8,142.6z
			 M329.1,137.2c0.1-2.8-1.2-7.4-6.3-7.4c-4.7,0-6.7,4.3-7,7.4H329.1z M360.1,155.5l-10.2-41.8h8.1l4,19c1.1,5.1,2,10.4,2.7,14.6
			h0.1c0.7-4.4,1.9-9.4,3-14.6l4.5-18.9h8l4.2,19.2c1,5,1.9,9.6,2.5,14.1h0.1c0.7-4.6,1.7-9.4,2.9-14.5l4.3-18.8h7.8l-11.3,41.8
			h-8.1l-4.3-19.7c-1.1-4.8-1.8-8.7-2.4-13.3h-0.1c-0.7,4.5-1.5,8.5-2.7,13.3l-4.8,19.7h-8.3L360.1,155.5L360.1,155.5z M433.2,140.1
			c0,11.1-7.8,16.1-15.5,16.1c-8.5,0-15.1-5.8-15.1-15.6c0-9.9,6.5-16,15.6-16C427.2,124.6,433.2,131,433.2,140.1z M410.5,140.4
			c0,5.8,2.9,10.2,7.5,10.2c4.3,0,7.4-4.2,7.4-10.4c0-4.7-2.1-10.2-7.3-10.2C412.6,130.2,410.5,135.4,410.5,140.4z M439.5,135.1
			c0-4.1-0.1-7.1-0.2-9.7h6.6l0.3,5.7h0.2c1.5-4.2,5-6.4,8.3-6.4c0.7,0,1.2,0.1,1.8,0.2v7.1c-0.7-0.1-1.4-0.2-2.3-0.2
			c-3.6,0-6.1,2.3-6.8,5.8c-0.1,0.7-0.2,1.5-0.2,2.3v15.7h-7.6L439.5,135.1L439.5,135.1z M461.5,111.5h7.6v44h-7.6V111.5z
			 M505.3,111.5V147c0,3.1,0.1,6.4,0.2,8.5h-6.8l-0.4-4.8h-0.1c-1.8,3.3-5.5,5.5-9.8,5.5c-7.3,0-13-6.1-13-15.4
			c-0.1-10.1,6.3-16.1,13.5-16.1c4.2,0,7.1,1.7,8.5,3.9h0.1v-17h7.8L505.3,111.5L505.3,111.5z M497.7,137.9c0-0.6-0.1-1.4-0.2-2
			c-0.7-2.9-3.1-5.3-6.6-5.3c-4.9,0-7.6,4.3-7.6,9.9c0,5.6,2.7,9.6,7.6,9.6c3.1,0,5.8-2.1,6.6-5.4c0.2-0.7,0.2-1.4,0.2-2.2V137.9z
			 M519,112.6l-1.2,15.9h-4.5l-1.2-15.9H519z M525.5,148.4c1.7,1.1,5,2.2,7.7,2.2c3.3,0,4.8-1.4,4.8-3.4s-1.2-3-5-4.4
			c-5.9-2-8.3-5.2-8.3-8.8c0-5.3,4.4-9.4,11.4-9.4c3.3,0,6.3,0.8,8.1,1.8l-1.5,5.3c-1.2-0.7-3.7-1.7-6.4-1.7s-4.2,1.4-4.2,3.2
			c0,1.9,1.4,2.8,5.3,4.2c5.5,1.9,8,4.7,8.1,9.2c0,5.5-4.3,9.5-12.3,9.5c-3.7,0-6.9-0.9-9.2-2.1L525.5,148.4L525.5,148.4z"/>
	</g>
	<g>
		<path class="st5" d="M48.7,207.9c3.7-0.8,10.3-1.4,16.9-1.4c8.5,0,13.8,1.1,18,4c3.9,2.3,6.6,6.5,6.6,11.9
			c0,5.8-3.7,11.1-10.5,13.6v0.3c6.7,1.7,12.8,7,12.8,15.6c0,5.6-2.4,10.1-6,13.2c-4.5,3.9-11.9,5.8-23.6,5.8
			c-6.4,0-11.2-0.5-14.2-0.8V207.9L48.7,207.9z M60.1,232.9H66c8.1,0,12.5-3.8,12.5-9.1c0-6-4.5-8.7-11.8-8.7
			c-3.4,0-5.4,0.2-6.6,0.5V232.9z M60.1,261.9c1.5,0.3,3.5,0.3,6.1,0.3c7.4,0,14.1-2.7,14.1-10.5c0-7.4-6.5-10.4-14.5-10.4h-5.7
			C60.1,241.3,60.1,261.9,60.1,261.9z M111,250.7c0.3,8.3,6.7,11.8,14.1,11.8c5.4,0,9.1-0.8,12.7-2.1l1.7,7.9
			c-3.9,1.7-9.4,2.9-16,2.9c-14.9,0-23.6-9.1-23.6-23.1c0-12.7,7.7-24.6,22.4-24.6c14.9,0,19.7,12.2,19.7,22.3
			c0,2.2-0.2,3.9-0.4,4.9L111,250.7L111,250.7z M131.1,242.6c0.1-4.2-1.8-11.2-9.5-11.2c-7.1,0-10.2,6.5-10.6,11.2H131.1z
			 M150.8,259.6c2.5,1.6,7.5,3.4,11.7,3.4c5.1,0,7.3-2.2,7.3-5.2c0-3.1-1.9-4.6-7.5-6.7c-8.9-3-12.6-7.9-12.6-13.3
			c0-8.1,6.7-14.3,17.3-14.3c5.1,0,9.5,1.2,12.2,2.7l-2.4,8.1c-1.9-1.1-5.6-2.6-9.7-2.6s-6.4,2.1-6.4,4.9c0,2.9,2.2,4.2,8,6.4
			c8.4,2.9,12.1,7.1,12.2,13.9c0,8.4-6.5,14.4-18.6,14.4c-5.5,0-10.5-1.3-13.9-3.2L150.8,259.6L150.8,259.6z M203.8,212.8v11.7h11
			v8.6h-11v20.2c0,5.6,1.5,8.5,5.9,8.5c2.1,0,3.2-0.1,4.5-0.5l0.2,8.7c-1.7,0.7-4.8,1.2-8.4,1.2c-4.3,0-7.8-1.4-10-3.8
			c-2.5-2.6-3.7-6.9-3.7-12.9V233h-6.5v-8.6h6.5V216L203.8,212.8z M254.5,270.3L234,207h12.6l8.6,28.9c2.4,8,4.6,15.3,6.2,23h0.2
			c1.7-7.5,4-15.2,6.5-22.9l9.2-28.9h12.3l-21.9,63.4h-13.2L254.5,270.3L254.5,270.3z M296.5,207.8c4.2-0.8,10-1.3,17.7-1.3
			c8.5,0,14.6,1.8,18.6,5.2c3.8,3.1,6.2,8.1,6.2,14c0,6-1.9,10.9-5.4,14.3c-4.7,4.6-11.8,6.9-20,6.9c-2.2,0-4-0.1-5.6-0.5v24h-11.5
			L296.5,207.8L296.5,207.8z M308,237.2c1.5,0.5,3.3,0.6,5.6,0.6c8.6,0,13.9-4.3,13.9-11.7c0-7-4.9-10.7-12.9-10.7
			c-3.2,0-5.5,0.3-6.7,0.6v21.2L308,237.2L308,237.2z M349,270.3V207h13.3l16.4,27.2c4.1,7,7.9,14.4,10.8,21.2h0.2
			c-0.8-8.5-1-16.6-1-26.3V207h10.7v63.4h-12l-16.5-27.9c-4-7-8.2-14.7-11.3-21.8l-0.4,0.1c0.5,8.2,0.7,16.5,0.7,27v22.7H349V270.3z
			 M48.5,353.9c3.7,2.2,9.4,4,15.3,4c7.3,0,11.5-3.5,11.5-8.6c0-4.8-3.2-7.6-11.2-10.5c-10.5-3.8-17.2-9.3-17.2-18.4
			c0-10.4,8.6-18.2,22.5-18.2c6.9,0,11.8,1.5,15.1,3.2l-2.7,9.3c-2.3-1.2-6.8-3-12.7-3c-7.3,0-10.4,3.9-10.4,7.6
			c0,4.9,3.7,7.1,12.1,10.4c11,4.1,16.3,9.7,16.3,18.8c0,10.2-7.7,19.1-24,19.1c-6.8,0-13.7-1.9-17.2-4L48.5,353.9L48.5,353.9z
			 M105.7,346.9c0.3,8.3,6.7,11.8,14.1,11.8c5.4,0,9.1-0.8,12.7-2.1l1.7,7.9c-3.9,1.7-9.4,2.9-16,2.9c-14.9,0-23.6-9.1-23.6-23.1
			c0-12.7,7.7-24.6,22.4-24.6c14.9,0,19.7,12.2,19.7,22.3c0,2.2-0.2,3.9-0.4,4.9L105.7,346.9L105.7,346.9z M125.8,338.8
			c0.1-4.2-1.8-11.2-9.5-11.2c-7.1,0-10.2,6.5-10.6,11.2H125.8z M146.1,335.5c0-6.2-0.1-10.7-0.4-14.8h10l0.5,8.6h0.3
			c2.3-6.4,7.6-9.7,12.6-9.7c1.1,0,1.8,0.1,2.7,0.3v10.8c-1-0.2-2.1-0.3-3.5-0.3c-5.5,0-9.3,3.5-10.3,8.7c-0.2,1-0.3,2.3-0.3,3.5
			v23.8h-11.6V335.5z M188.9,320.7l7.4,23.2c1.3,4,2.3,7.7,3.1,11.5h0.3c0.8-3.8,1.9-7.3,3.1-11.5l7.3-23.2h12.1l-17.5,45.8h-11.4
			l-17-45.8H188.9L188.9,320.7z M241.7,308c0,3.4-2.5,6.2-6.6,6.2c-3.9,0-6.4-2.8-6.4-6.2c0-3.6,2.6-6.3,6.5-6.3
			S241.6,304.4,241.7,308z M229.3,366.5v-45.8h11.6v45.8H229.3z M287.1,365.1c-2.4,1.1-7.2,2.4-13,2.4c-14.3,0-23.6-9.2-23.6-23.4
			c0-13.7,9.4-24.3,25.5-24.3c4.2,0,8.6,0.9,11.2,2.1l-2.1,8.7c-1.9-0.9-4.6-1.8-8.7-1.8c-8.8,0-14.1,6.5-14,14.9
			c0,9.4,6.1,14.8,14,14.8c3.9,0,6.9-0.8,9.1-1.8L287.1,365.1L287.1,365.1z M302.9,346.9c0.3,8.3,6.7,11.8,14.1,11.8
			c5.4,0,9.1-0.8,12.7-2.1l1.7,7.9c-3.9,1.7-9.4,2.9-16,2.9c-14.9,0-23.6-9.1-23.6-23.1c0-12.7,7.7-24.6,22.4-24.6
			c14.9,0,19.7,12.2,19.7,22.3c0,2.2-0.2,3.9-0.4,4.9L302.9,346.9L302.9,346.9z M323.1,338.8c0.1-4.2-1.8-11.2-9.5-11.2
			c-7.1,0-10.2,6.5-10.6,11.2H323.1z M342.8,355.8c2.5,1.6,7.5,3.4,11.7,3.4c5.1,0,7.3-2.2,7.3-5.2c0-3.1-1.9-4.6-7.5-6.7
			c-8.9-3-12.6-7.9-12.6-13.3c0-8.1,6.7-14.3,17.3-14.3c5.1,0,9.5,1.2,12.2,2.7l-2.4,8.1c-1.9-1.1-5.6-2.6-9.7-2.6s-6.4,2.1-6.4,4.9
			c0,2.9,2.2,4.2,8,6.4c8.4,2.9,12.1,7.1,12.2,13.9c0,8.4-6.5,14.4-18.6,14.4c-5.5,0-10.5-1.3-13.9-3.2L342.8,355.8L342.8,355.8z"/>
	</g>
</g>
<g>
	<g>
		<path class="st5" d="M102.3,575.6L93,558.3h5.6l3.9,7.7l3.6-7.7h4.7C110.8,558.3,102.3,575.6,102.3,575.6z M129,566.8
			c0,4.9-3.7,8.1-7.1,8.6c-2.1,0.3-4,0-4.9-1.2v8.8h-5.2v-24.5h4.9v1.2c0.9-1.3,2.9-2,5.2-1.6C126,558.4,129,561.8,129,566.8z
			 M117.1,566.8c0,2.3,1.5,3.9,3.6,3.9c2.3,0,3.6-1.6,3.6-3.9s-1.3-3.9-3.6-3.9C118.5,562.9,117.1,564.5,117.1,566.8z M148.7,566
			v8.9h-5.4v-9c0-2-0.9-2.9-2.7-3.2s-3.7,0.8-3.7,3.1v9.2h-5.4v-16.5h5.2v0.8C141,555.4,148.7,558.6,148.7,566L148.7,566z
			 M178.9,574.8h-5.7v-14.4l-7.7,5.8l-7.7-5.8v14.2h-5.7v-25.2l13.4,10.1l13.4-10.1V574.8z M198.2,562c0.3,0.4,0.7,1.3,0.8,1.8
			l-8.9,6.4c1.1,0.5,3.1,0.1,4.7-1.3l3.6,2.9c-2.9,4.9-12.6,4.4-15.3-0.1c-2.4-4-1.5-9.8,2.5-12.5C189.2,557,195.4,557.6,198.2,562
			L198.2,562z M187.2,567.3l5.6-3.9c-1.2-1.2-3.2-1.1-4.4-0.1C187.2,564,186.5,565.7,187.2,567.3L187.2,567.3z M231.6,562.7h-4.1
			v4.9c0,2,1.5,3.2,4,2.8l-0.3,4.8c-5.6,0.1-8.6-2.8-8.6-6.9v-5.7h-2.7v-4.4h2.7v-2.4l4.8-3.5v5.8h4.1
			C231.6,558.1,231.6,562.7,231.6,562.7L231.6,562.7z M250.6,566.8c0,4.9-3.7,8.8-9,8.8c-5.2,0-9-3.7-9-8.8c0-4.9,3.7-8.8,9-8.8
			C246.9,557.9,250.6,561.6,250.6,566.8z M238.1,566.8c0,2.3,1.5,3.9,3.6,3.9s3.6-1.5,3.6-3.9s-1.5-3.9-3.6-3.9
			C239.4,562.9,238.1,564.4,238.1,566.8z M262.5,558.2v4.5c-2.5-0.9-4.8,1.2-4.8,3.5v8.6h-5.2v-16.5h4.9v1.5
			C258.3,557.6,262.1,558,262.5,558.2L262.5,558.2z M218.4,566v8.9H213v-9c0-2-0.9-2.9-2.7-3.2s-3.7,0.8-3.7,3.1v9.2h-5.4v-16.5h5.2
			v0.8C210.7,555.4,218.4,558.6,218.4,566L218.4,566z M82.8,548.3c0,0-6.8-0.1-10.6-1.1c-3.9-0.9-9.3-3.9-9.3-3.9s-4.3,2.7-9.8,4
			c-0.8,0.3-2,0.4-2.9,0.5h-1.5c-2.4,0.1-4.7,0.1-5.6,0.1h-0.3c0,0.3,0,0.7-0.1,0.9c-1.2,15.8,2.7,25.7,7.3,31.4
			c5.7,7.2,12.6,8.8,12.6,8.8C62.5,589.3,85.1,586.1,82.8,548.3z M75.4,579.2v-16l-12.6,9.4L50,563.2V579c-4-5.7-7.2-14.8-6.2-28.9
			l19.1,14.4l18.9-14.6C82.4,562.3,80.2,572.1,75.4,579.2z"/>
	</g>
</g>
<g>
	<g>
		
			<linearGradient id="SVGID_00000155837602379654298350000007105584642250061965_" gradientUnits="userSpaceOnUse" x1="958.3848" y1="-863.8102" x2="869.6337" y2="-432.3782" gradientTransform="matrix(1 0 0 1 0 918.5354)">
			<stop  offset="0" style="stop-color:#00BA88"/>
			<stop  offset="4.220551e-02" style="stop-color:#00B184"/>
			<stop  offset="0.2495" style="stop-color:#008971"/>
			<stop  offset="0.4531" style="stop-color:#006962"/>
			<stop  offset="0.6495" style="stop-color:#005258"/>
			<stop  offset="0.8354" style="stop-color:#004551"/>
			<stop  offset="1" style="stop-color:#00404F"/>
		</linearGradient>
		<path style="fill:url(#SVGID_00000155837602379654298350000007105584642250061965_);" d="M621,95h579v385H621V95z"/>
		
			<linearGradient id="SVGID_00000052087666667524358670000008275884161606692018_" gradientUnits="userSpaceOnUse" x1="578.0951" y1="-752.4984" x2="1236.1914" y2="-512.9702" gradientTransform="matrix(1 0 0 1 0 918.5354)">
			<stop  offset="0" style="stop-color:#000000"/>
			<stop  offset="0.442" style="stop-color:#131313"/>
			<stop  offset="0.923" style="stop-color:#232323"/>
		</linearGradient>
		<path style="fill:url(#SVGID_00000052087666667524358670000008275884161606692018_);" d="M633,103.2v351.6c0,1.8,1.4,3.2,3.2,3.2
			H1200v47H627.2c-11.2,0-20.2-9.1-20.2-20.2V90.2C607,79,616.1,70,627.2,70H1200v30H636.2C634.4,100,633,101.4,633,103.2z"/>
		
			<linearGradient id="SVGID_00000079478094225483823650000003400028791835028408_" gradientUnits="userSpaceOnUse" x1="870.1471" y1="-419.5354" x2="870.1471" y2="-398.5354" gradientTransform="matrix(1 0 0 1 0 918.5354)">
			<stop  offset="0" style="stop-color:#A4A4A4"/>
			<stop  offset="0.396" style="stop-color:#666666"/>
			<stop  offset="1" style="stop-color:#363636"/>
		</linearGradient>
		<path style="fill:url(#SVGID_00000079478094225483823650000003400028791835028408_);" d="M1200,499v21H631.3
			c-16.7,0-33.4-2.3-49.6-6.6l-40.1-10.8c-2-0.5-1.6-3.6,0.5-3.6L1200,499L1200,499z"/>
		
			<linearGradient id="SVGID_00000104665539085707696450000010381136981762615982_" gradientUnits="userSpaceOnUse" x1="857" y1="-417.3854" x2="987.8036" y2="-417.3854" gradientTransform="matrix(1 0 0 1 0 918.5354)">
			<stop  offset="0" style="stop-color:#666666"/>
			<stop  offset="0.117" style="stop-color:#E4E4E4"/>
			<stop  offset="0.893" style="stop-color:#FFFFFF"/>
			<stop  offset="1" style="stop-color:#666666"/>
		</linearGradient>
		<path style="fill:url(#SVGID_00000104665539085707696450000010381136981762615982_);" d="M983.4,503.4H861.5c-2.5,0-4.5-2-4.5-4.5
			h130.8C987.9,501.4,985.9,503.4,983.4,503.4L983.4,503.4z"/>
		
			<ellipse transform="matrix(0.7071 -0.7071 0.7071 0.7071 160.2055 775.9732)" class="st10" cx="1016.8" cy="194.6" rx="59.4" ry="59.4"/>
		<path class="st11" d="M999.9,231.2c-2,0-4.1,0.2-6.1,0c-3.7-0.6-6.1-3.2-7.3-6.9c-0.9-2.8-1.1-5.8-1.5-8.7c-0.2-2.4-0.2-4.6,0-6.9
			c0.2-4.3,0.6-8.7,0.9-13.4c0-1.1,0.2-2.4,0.2-3.5c0-2.4,0.2-5,0.2-7.3c0.2-6.7,2.4-12.5,6.7-17.7c4.6-5.4,10.4-9,17.3-10.4
			c9.3-1.7,17.9,0.6,25.3,6.7c5,4.3,8.2,9.9,9.5,16.2c0.2,1.5,0.6,2.8,0.6,4.3c0,4.6,1.1,9.3,2,13.9c1.1,4.3,1.7,8.7,1.1,13
			c-0.2,5-2.8,9-6.9,11.9c-4.3,3.2-9.5,5-14.7,6.1c-4.6,0.9-9.3,1.5-14.2,2c-1.5,0.2-3.2,0.2-4.6,0.2
			C1005.8,230.8,1002.9,230.8,999.9,231.2C999.9,230.8,999.9,231.2,999.9,231.2L999.9,231.2z M1009.6,202.1c3.5,0,5.8-1.7,7.8-4.3
			c2.6-3.7,3.5-8.2,3.2-12.5c-0.2-3.2-1.1-6.1-3.2-8.7c-1.7-2.6-4.1-4.3-7.3-4.3c-3.5,0-5.8,1.7-7.6,4.3c-2.6,3.7-3.5,7.8-3.2,12.5
			c0.2,3.2,1.1,6.1,3.2,8.7C1004,200.1,1006.4,201.9,1009.6,202.1z M1043.5,184.2c0-2.6-0.6-5-2.6-7.6c-2.8-4.1-7.6-4.6-11-0.6
			c-4.1,4.6-4.1,13-0.2,17.9c2.8,3.7,7.6,3.7,10.8,0.2C1042.6,191.7,1043.5,188.5,1043.5,184.2L1043.5,184.2z"/>
		<ellipse class="st12" cx="812.1" cy="194.6" rx="58.4" ry="58.6"/>
		<path class="st5" d="M794.3,224.5c-8.4,0-13.7-4.7-13.7-11.2c0-2.1,0.6-4.8,3.1-10.1H775l8-17.2h55.9c1.3,0,2.1-1,2.1-2.1
			s-0.9-2.1-2.1-2.1h-45.3l4-8.5c2.5-5.2,7.8-8.7,13.6-8.7h19c11,0,19.1,7.6,19.1,17.4c0,11.7-10.7,21.1-23.1,21.1h-36.7
			c-1.1,2.3,0.2,4.1,2.9,4.1h29.3c4.9,0,8.6,3.4,8.6,7.8c0,5-4.8,9.4-10.3,9.4h-25.7V224.5z"/>
		
			<linearGradient id="SVGID_00000167355539717175743880000008480567573980211643_" gradientUnits="userSpaceOnUse" x1="961.228" y1="-946.8792" x2="755.347" y2="-449.1071" gradientTransform="matrix(1 0 0 1 0 918.5354)">
			<stop  offset="0" style="stop-color:#FFFFFF"/>
			<stop  offset="0.332" style="stop-color:#FFFFFF;stop-opacity:0.515"/>
			<stop  offset="1" style="stop-color:#FFFFFF;stop-opacity:0"/>
		</linearGradient>
		<path style="opacity:0.3;fill:url(#SVGID_00000167355539717175743880000008480567573980211643_);enable-background:new    ;" d="
			M1199,70v66.9L773.8,473.7l-166.8,21V91.9c0-13.2,12.6-21.9,25.8-21.9H1199z"/>
		<g>
			<path class="st14" d="M1047.1,311.8l-28.9-5.4c-1-0.2-1.9-0.2-2.9,0l-29.1,5.4c-1.8,0.3-3.3,2-3.3,3.8v35.9
				c-0.1,20.8,21.1,33.9,30,38.6c2.5,1.3,5.4,1.4,8,0.2c8.9-4.3,29.3-16.4,29.3-38.7v-35.9C1050.1,313.8,1048.9,312.2,1047.1,311.8
				L1047.1,311.8z"/>
			<path class="st15" d="M982,371.9c-0.4,0.1-0.9,0.1-1.4,0.1c-2.3,0-4.5-0.9-6.3-2.5c-2.9-2.6-4.9-7-4.9-12c0-2.7,0.6-5.3,1.6-7.5
				c1.3-2.9,2.9-5.1,5.9-6.2v7.9l0.2,0.1v2.1C977.1,360.5,979,366.6,982,371.9z M1051.3,371.9c0.4,0.1,0.9,0.1,1.4,0.1
				c2.3,0,4.5-0.9,6.3-2.5c2.9-2.6,4.9-7,4.9-12c0-2.7-0.8-5.3-1.8-7.5c-1.3-2.9-3-5.1-6-6.2v8l0.1,2.1
				C1056.1,360.5,1054.3,366.6,1051.3,371.9z"/>
			<path class="st16" d="M959.1,362.7c0-9.3,6.3-16.8,14.1-16.8c0,0,0.7,5.7,0.7,15s7.1,18.6-0.7,18.6S959.1,372,959.1,362.7
				L959.1,362.7z M1074.3,362.7c0-9.3-6.3-16.8-14.1-16.8c0,0-0.7,5.7-0.7,15s-7.1,18.6,0.7,18.6S1074.3,372,1074.3,362.7
				L1074.3,362.7z"/>
			<path class="st17" d="M1017.5,368.3c-4.5,0-7.5-3.6-7.5-8.3v-10.7c-4-2.3-5.5-6-5.5-10.7c0-7.3,5.8-13.3,13.1-13.3
				c7.3,0,12.9,5.9,12.9,13.3c0,3.8-1.4,7.6-5.4,10.2V360C1025,364.8,1022,368.3,1017.5,368.3z"/>
			<path class="st18" d="M1017.5,328.3c5.7,0,9.9,4.6,9.9,10.3c0,3.7-2.4,6.9-5.4,8.7V360c0,2.9-1.6,5.3-4.5,5.3s-4.5-2.4-4.5-5.3
				v-12.4c-4-1.8-5.5-5.1-5.5-9C1007.5,332.9,1011.8,328.3,1017.5,328.3 M1017.5,322.3c-8.9,0-16,7.3-16,16.3
				c0,5.2,1.5,9.4,5.5,12.3v9.1c0,6.3,4.4,11.3,10.5,11.3s10.5-5,10.5-11.3v-9.8c4-3.1,5.4-7.3,5.4-11.6
				C1033.4,329.5,1026.5,322.3,1017.5,322.3z"/>
			<path class="st15" d="M1095,387.1c0-0.1,0.1-0.3,0.1-0.4c0.1-0.4,0.1-0.7,0.1-1.1c0.1-0.9,0.2-1.9,0.2-2.9c0-1.2-0.1-2.3-0.3-3.2
				c-1.6-11.3-11.2-19.9-22.8-19.9c-4.1,0-7.9,1.1-11.2,3c0.5-2.8,1-5.7,1-8.7v-2.1l-0.2-0.1l0.2-35.4c0-7.2-3.6-12.7-9.5-14.8
				l-0.2-0.1l-33.2-6.4c-1.6-0.3-3.2-0.3-4.7,0l-30.6,5.6c-8.8,1.4-12.8,10-12.8,15.7v39.6c0,0,0.7,4.4,1.1,6.4
				c-3.3-1.8-6.9-2.8-10.9-2.8c-12.7,0-23,10.4-23,23.3v1c0,23,34.2,35.2,79.4,35.2c31.3,0,56.6-6.4,69.2-18
				C1091,397.6,1094,392.7,1095,387.1L1095,387.1z M977,316.4c0-3,2.2-9.1,7.8-10l30.6-5.6c0.9-0.2,1.7-0.2,2.6,0l32.7,6.4
				c2.1,0.8,5.4,3,5.4,9.2l-0.2,39.5h0.2c-1,19.3-15.7,28.7-28.6,37.6c-3.1,2.2-6.2,3.7-10.2,3.7c-4.2,0-10.2-2.7-14.9-6.1
				c-7.7-5.4-14.8-10.9-20.5-21.1c-3-5.3-4.9-9.5-4.9-16.1l-0.1-2.2v-35.3H977L977,316.4z"/>
		</g>
		<g>
			<g id="Group_47966">
				
					<linearGradient id="Path_30_00000127001867643542412210000018158769637988521103_" gradientUnits="userSpaceOnUse" x1="21.029" y1="57.9228" x2="21.0402" y2="58.9972" gradientTransform="matrix(76 0 0 45.27 -788.0117 -2341.0906)">
					<stop  offset="0" style="stop-color:#70E076"/>
					<stop  offset="0.6" style="stop-color:#4A9E41"/>
					<stop  offset="1" style="stop-color:#3EA74A"/>
				</linearGradient>
				<path id="Path_30" style="fill:url(#Path_30_00000127001867643542412210000018158769637988521103_);" d="M783.1,330.8v-7.5
					c-0.3-15.4,12-28.1,27.4-28.3s28.1,12,28.3,27.4c0,0.4,0,0.7,0,1.1v7.3h14.7v-7.5c0.3-23.5-18.4-42.8-41.9-43.1
					s-42.8,18.4-43.1,41.9c0,0.4,0,0.8,0,1.2v7.5H783.1z"/>
				
					<linearGradient id="Path_31_00000063626030343893968370000007511112609262462908_" gradientUnits="userSpaceOnUse" x1="19.9457" y1="56.9177" x2="19.9457" y2="55.8545" gradientTransform="matrix(94.33 0 0 81.23 -1070.4814 -4202.5283)">
					<stop  offset="0" style="stop-color:#4A9E41"/>
					<stop  offset="1" style="stop-color:#70E076"/>
				</linearGradient>
				<path id="Path_31" style="fill:url(#Path_31_00000063626030343893968370000007511112609262462908_);" d="M860.9,339.4
					c0-4.9-3.9-8.8-8.8-8.8h-19c-2.5,0-4.9,1.1-6.6,2.9h-31c-1.7-1.9-4-2.9-6.5-2.9h-19c-4.9,0-8.8,3.9-8.8,8.8c0,0,0,0,0,0l0,0
					c-1.9,2.5-2.9,5.6-2.9,8.8V401c0,6.5,4.3,12.3,10.6,14.1c1.1,3.8,4.5,6.5,8.5,6.5h13.2c3.7,0,7-2.4,8.3-5.9h24.5
					c1.2,3.5,4.6,5.9,8.3,5.9h13.2c4,0,7.4-2.6,8.5-6.5c6.3-1.8,10.6-7.5,10.6-14.1v-52.8C863.8,345,862.8,342,860.9,339.4z
					 M817,374.8c-0.5,0.3-0.8,0.9-0.6,1.5l3.3,18.6c0.1,0.8-0.4,1.5-1.1,1.7c-0.1,0-0.2,0-0.3,0h-14.4c-0.8,0-1.4-0.6-1.5-1.4
					c0,0,0,0,0,0c0-0.1,0-0.2,0-0.3l3.3-18.6c0.1-0.6-0.2-1.2-0.7-1.5c-5.6-3.4-7.5-10.7-4.1-16.3s10.7-7.5,16.3-4.1
					c5.6,3.4,7.5,10.7,4.1,16.3C820.2,372.3,818.8,373.8,817,374.8L817,374.8z"/>
				<path id="Path_32" class="st21" d="M804.4,314.3c0-2.6-2.1-4.8-4.7-4.8c-2.6,0-4.8,2.1-4.8,4.7c0,2.6,2.1,4.8,4.7,4.8
					c0,0,0,0,0,0l0,0C802.2,319.1,804.4,317,804.4,314.3C804.4,314.4,804.4,314.4,804.4,314.3z M822.4,309.6c-2.6,0-4.8,2.1-4.8,4.7
					c0,2.6,2.1,4.8,4.7,4.8c2.6,0,4.8-2.1,4.8-4.7c0,0,0,0,0,0C827.1,311.7,825,309.6,822.4,309.6
					C822.4,309.6,822.4,309.6,822.4,309.6z M817.3,322.2c-3.5,3.3-9.1,3.3-12.6,0c-0.6-0.6-1.5-0.6-2.1,0c0,0,0,0,0,0
					c-0.5,0.6-0.5,1.5,0,2c4.7,4.5,12.1,4.5,16.8,0c0.6-0.6,0.6-1.5,0-2.1C818.8,321.6,817.8,321.6,817.3,322.2L817.3,322.2z"/>
				
					<linearGradient id="Path_33_00000145756838257634787320000010669158035677434301_" gradientUnits="userSpaceOnUse" x1="30.0143" y1="58.9391" x2="30.0143" y2="57.8646" gradientTransform="matrix(29.24 0 0 47.16 -66.62 -2378.3884)">
					<stop  offset="0" style="stop-color:#70E076"/>
					<stop  offset="1" style="stop-color:#4A9E41"/>
				</linearGradient>
				<path id="Path_33" style="fill:url(#Path_33_00000145756838257634787320000010669158035677434301_);" d="M821.1,377.4
					c7.1-5.6,8.4-15.9,2.9-23c-5.6-7.1-15.9-8.4-23-2.9s-8.4,15.9-2.9,23c0.8,1.1,1.8,2,2.9,2.9L798,394c-0.6,3.2,1.6,6.3,4.8,6.8
					c0.3,0.1,0.7,0.1,1,0.1h14.4c3.3,0,5.9-2.6,5.9-5.9c0-0.3,0-0.7-0.1-1L821.1,377.4z M818.2,396.6h-14.4c-0.8,0-1.5-0.7-1.5-1.5
					v0c0-0.1,0-0.2,0-0.3l3.3-18.6c0.1-0.6-0.2-1.2-0.7-1.5c-5.7-3.3-7.6-10.7-4.2-16.3s10.7-7.6,16.3-4.2
					c5.7,3.3,7.6,10.7,4.2,16.3c-1,1.7-2.5,3.2-4.2,4.2c-0.5,0.3-0.8,0.9-0.6,1.5l3.3,18.6c0.1,0.8-0.3,1.5-1.1,1.7L818.2,396.6z"/>
			</g>
			
				<radialGradient id="Ellipse_14_00000085945748499816214420000012280948538928389773_" cx="18.9319" cy="79.0945" r="0.526" gradientTransform="matrix(121.52 0 0 9.13 -1491.5569 -299.8116)" gradientUnits="userSpaceOnUse">
				<stop  offset="0" style="stop-color:#3E7F34;stop-opacity:0.79"/>
				<stop  offset="1" style="stop-color:#3E7F34;stop-opacity:0"/>
			</radialGradient>
			
				<ellipse id="Ellipse_14" style="opacity:0.28;fill:url(#Ellipse_14_00000085945748499816214420000012280948538928389773_);enable-background:new    ;" cx="811" cy="421.5" rx="68" ry="5.1"/>
		</g>
	</g>
	<circle class="st24" cx="922.5" cy="87.3" r="4.2"/>
</g>
</svg>
